<svg id="Capa_1" data-name="Capa 1" xmlns="http://www.w3.org/2000/svg" xmlns:xlink="http://www.w3.org/1999/xlink" viewBox="0 0 299.01 715.39" class="" style=""><defs><style>.cls-1{fill:#dadada;}.cls-2{fill:#1d1d1b;}.cls-3{fill:#fcdf02;}.cls-4{fill:#663413;}.cls-5{fill:url(#Degradado_sin_nombre_2);}.cls-6{fill:url(#Degradado_sin_nombre_6);}.cls-7{fill:url(#Degradado_sin_nombre_4);}.cls-8{fill:url(#Degradado_sin_nombre_5);}.cls-9{fill:url(#Degradado_sin_nombre_7);}.cls-10{fill:url(#Degradado_sin_nombre_8);}.cls-11{fill:url(#Degradado_sin_nombre_9);}.cls-12{fill:url(#Degradado_sin_nombre_10);}.cls-13{fill:url(#Degradado_sin_nombre_30);}.cls-14{fill:url(#Degradado_sin_nombre_12);}.cls-15{fill:url(#Degradado_sin_nombre_13);}.cls-16{fill:url(#Degradado_sin_nombre_14);}.cls-17{fill:url(#Degradado_sin_nombre_15);}.cls-18{fill:url(#Degradado_sin_nombre_32);}.cls-19{fill:url(#Degradado_sin_nombre_31);}.cls-20{fill:url(#Degradado_sin_nombre_18);}.cls-21{fill:url(#Degradado_sin_nombre_28);}.cls-22{fill:url(#Degradado_sin_nombre_20);}.cls-23{fill:url(#Degradado_sin_nombre_21);}.cls-24{fill:url(#Degradado_sin_nombre_22);}.cls-25{fill:url(#Degradado_sin_nombre_23);}.cls-26{fill:url(#Degradado_sin_nombre_24);}.cls-27{fill:url(#Degradado_sin_nombre_25);}.cls-28{fill:url(#Degradado_sin_nombre_26);}.cls-29{fill:url(#Degradado_sin_nombre_27);}.cls-30{fill:url(#Degradado_sin_nombre_28-2);}.cls-31{fill:url(#Degradado_sin_nombre_29);}.cls-32{fill:url(#Degradado_sin_nombre_30-2);}.cls-33{fill:url(#Degradado_sin_nombre_31-2);}.cls-34{fill:url(#Degradado_sin_nombre_32-2);}</style><linearGradient id="Degradado_sin_nombre_2" x1="-155.03" y1="-34.68" x2="-153.66" y2="-34.68" gradientTransform="matrix(0, -103.09, -103.09, 0, -3453.05, -15208.87)" gradientUnits="userSpaceOnUse"><stop offset="0" stop-color="#653513"></stop><stop offset="0.42" stop-color="#653513"></stop><stop offset="0.49" stop-color="#7d5011"></stop><stop offset="0.67" stop-color="#b38d0b"></stop><stop offset="0.82" stop-color="#dbb907"></stop><stop offset="0.93" stop-color="#f3d505"></stop><stop offset="1" stop-color="#fcdf04"></stop></linearGradient><linearGradient id="Degradado_sin_nombre_6" x1="-152.49" y1="-32.78" x2="-151.13" y2="-32.78" gradientTransform="matrix(0, 321.47, 321.47, 0, 10682.49, 49229.91)" gradientUnits="userSpaceOnUse"><stop offset="0" stop-color="#fcdf04"></stop><stop offset="0.04" stop-color="#fcdf04"></stop><stop offset="1" stop-color="#fcdf04"></stop></linearGradient><linearGradient id="Degradado_sin_nombre_4" x1="-153.47" y1="-34.97" x2="-152.09" y2="-34.97" gradientTransform="matrix(28.62, -89.69, -89.69, -28.62, 1477.84, -14447.54)" gradientUnits="userSpaceOnUse"><stop offset="0" stop-color="#653513"></stop><stop offset="0.7" stop-color="#653513"></stop><stop offset="0.72" stop-color="#7d5011"></stop><stop offset="0.77" stop-color="#b38d0b"></stop><stop offset="0.82" stop-color="#dbb907"></stop><stop offset="0.86" stop-color="#f3d505"></stop><stop offset="0.88" stop-color="#fcdf04"></stop><stop offset="1" stop-color="#fcdf04"></stop></linearGradient><linearGradient id="Degradado_sin_nombre_5" x1="-154.02" y1="-33.99" x2="-152.65" y2="-33.99" gradientTransform="matrix(0, -218.68, -218.68, 0, -7301.52, -32749.94)" gradientUnits="userSpaceOnUse"><stop offset="0" stop-color="#fcdf04"></stop><stop offset="0.52" stop-color="#fcdf04"></stop><stop offset="0.58" stop-color="#f1d305"></stop><stop offset="0.68" stop-color="#d4b208"></stop><stop offset="0.83" stop-color="#a47c0d"></stop><stop offset="1" stop-color="#653513"></stop></linearGradient><linearGradient id="Degradado_sin_nombre_7" x1="-152.39" y1="-32.53" x2="-151.03" y2="-32.53" gradientTransform="matrix(0, 248.11, 248.11, 0, 8239.89, 38037.29)" gradientUnits="userSpaceOnUse"><stop offset="0" stop-color="#fcdf04"></stop><stop offset="0.03" stop-color="#fcdf04"></stop><stop offset="0.07" stop-color="#fdd401" stop-opacity="0.86"></stop><stop offset="0.09" stop-color="#fdcf00" stop-opacity="0.8"></stop><stop offset="0.15" stop-color="#fdcc00" stop-opacity="0.74"></stop><stop offset="0.28" stop-color="#fcc401" stop-opacity="0.57"></stop><stop offset="0.32" stop-color="#fcc101" stop-opacity="0.5"></stop><stop offset="0.41" stop-color="#fdcc00" stop-opacity="0.27"></stop><stop offset="0.44" stop-color="#fdcf00" stop-opacity="0.2"></stop><stop offset="0.49" stop-color="#fdcc00" stop-opacity="0.26"></stop><stop offset="0.58" stop-color="#fcc401" stop-opacity="0.43"></stop><stop offset="0.61" stop-color="#fcc101" stop-opacity="0.5"></stop><stop offset="0.92" stop-color="#fdcf00" stop-opacity="0.5"></stop><stop offset="0.94" stop-color="#fdd201" stop-opacity="0.58"></stop><stop offset="0.96" stop-color="#fcd802" stop-opacity="0.79"></stop><stop offset="0.98" stop-color="#fcdf04"></stop><stop offset="1" stop-color="#fcdf04"></stop></linearGradient><linearGradient id="Degradado_sin_nombre_8" x1="-152.47" y1="-32.58" x2="-151.1" y2="-32.58" gradientTransform="matrix(0, 301.73, 301.73, 0, 10025.21, 46221.15)" gradientUnits="userSpaceOnUse"><stop offset="0" stop-color="#31160d" stop-opacity="0"></stop><stop offset="0.02" stop-color="#31160d" stop-opacity="0"></stop><stop offset="0.1" stop-color="#31160d" stop-opacity="0.2"></stop><stop offset="0.34" stop-color="#31160d" stop-opacity="0.5"></stop><stop offset="0.63" stop-color="#31160d" stop-opacity="0.2"></stop><stop offset="0.86" stop-color="#31160d" stop-opacity="0.5"></stop><stop offset="1" stop-color="#31160d" stop-opacity="0"></stop><stop offset="1" stop-color="#31160d" stop-opacity="0"></stop></linearGradient><linearGradient id="Degradado_sin_nombre_9" x1="-153.29" y1="-38.67" x2="-151.79" y2="-38.67" gradientTransform="matrix(14.6, -25.94, -25.94, -14.6, 1451.25, -4307.52)" gradientUnits="userSpaceOnUse"><stop offset="0" stop-color="#fcdf04" stop-opacity="0"></stop><stop offset="0.8" stop-color="#fcdf04" stop-opacity="0"></stop><stop offset="0.83" stop-color="#e9ca06" stop-opacity="0.12"></stop><stop offset="0.88" stop-color="#b8930b" stop-opacity="0.45"></stop><stop offset="0.95" stop-color="#693a13" stop-opacity="0.97"></stop><stop offset="0.95" stop-color="#653513"></stop><stop offset="1" stop-color="#653513"></stop></linearGradient><linearGradient id="Degradado_sin_nombre_10" x1="-151.78" y1="-35.32" x2="-150.22" y2="-35.32" gradientTransform="matrix(93.28, 0, 0, -93.28, 14262.62, -3083.34)" gradientUnits="userSpaceOnUse"><stop offset="0" stop-color="#fcdf04"></stop><stop offset="0.03" stop-color="#fcdf04"></stop><stop offset="0.05" stop-color="#efd205" stop-opacity="0.97"></stop><stop offset="0.09" stop-color="#cbaf06" stop-opacity="0.88"></stop><stop offset="0.15" stop-color="#927609" stop-opacity="0.74"></stop><stop offset="0.22" stop-color="#452a0c" stop-opacity="0.55"></stop><stop offset="0.23" stop-color="#31160d" stop-opacity="0.5"></stop><stop offset="0.42" stop-color="#31160d"></stop><stop offset="0.56" stop-color="#31160d"></stop><stop offset="0.66" stop-color="#31160d" stop-opacity="0.5"></stop><stop offset="0.8" stop-color="#31160d" stop-opacity="0"></stop><stop offset="1" stop-color="#31160d" stop-opacity="0"></stop></linearGradient><radialGradient id="Degradado_sin_nombre_30" cx="-147.29" cy="-30.14" r="1.33" gradientTransform="matrix(20.13, 7.41, -6.08, 12.64, 2932.18, 1677.01)" gradientUnits="userSpaceOnUse"><stop offset="0" stop-color="#fff" stop-opacity="0.85"></stop><stop offset="0.68" stop-color="#fff" stop-opacity="0.5"></stop><stop offset="1" stop-color="#fff" stop-opacity="0"></stop></radialGradient><linearGradient id="Degradado_sin_nombre_12" x1="-155.03" y1="-34.68" x2="-153.66" y2="-34.68" gradientTransform="matrix(0, -103.09, -103.09, 0, -3453.05, -15208.87)" gradientUnits="userSpaceOnUse"><stop offset="0" stop-color="#fcdf04"></stop><stop offset="0.36" stop-color="#fcdf04"></stop><stop offset="0.37" stop-color="#f1d305"></stop><stop offset="0.38" stop-color="#d4b208"></stop><stop offset="0.4" stop-color="#a47c0d"></stop><stop offset="0.42" stop-color="#653513"></stop><stop offset="0.49" stop-color="#7d5011"></stop><stop offset="0.67" stop-color="#b38d0b"></stop><stop offset="0.82" stop-color="#dbb907"></stop><stop offset="0.93" stop-color="#f3d505"></stop><stop offset="1" stop-color="#fcdf04"></stop></linearGradient><linearGradient id="Degradado_sin_nombre_13" x1="-154.02" y1="-33.99" x2="-152.65" y2="-33.99" gradientTransform="matrix(0, -218.68, -218.68, 0, -7301.52, -32749.94)" gradientUnits="userSpaceOnUse"><stop offset="0" stop-color="#fcdf04"></stop><stop offset="0.69" stop-color="#fcdf04"></stop><stop offset="0.72" stop-color="#f5d705" stop-opacity="0.95"></stop><stop offset="0.77" stop-color="#e1c007" stop-opacity="0.82"></stop><stop offset="0.83" stop-color="#c19c0a" stop-opacity="0.61"></stop><stop offset="0.91" stop-color="#956b0e" stop-opacity="0.32"></stop><stop offset="0.99" stop-color="#653513" stop-opacity="0"></stop><stop offset="1" stop-color="#653513" stop-opacity="0"></stop></linearGradient><radialGradient id="Degradado_sin_nombre_14" cx="-149.53" cy="-26.73" r="1.33" gradientTransform="translate(4712.75 1292.79) scale(30.32 26.54)" gradientUnits="userSpaceOnUse"><stop offset="0" stop-color="#31160d"></stop><stop offset="0.54" stop-color="#31160d" stop-opacity="0.5"></stop><stop offset="1" stop-color="#31160d" stop-opacity="0"></stop></radialGradient><radialGradient id="Degradado_sin_nombre_15" cx="-146.83" cy="-45.7" r="1.33" gradientTransform="matrix(16.45, 0, 0, -14.4, 2593.12, -57.17)" gradientUnits="userSpaceOnUse"><stop offset="0" stop-color="#fff" stop-opacity="0.85"></stop><stop offset="0.4" stop-color="#fff" stop-opacity="0.5"></stop><stop offset="1" stop-color="#fff" stop-opacity="0"></stop></radialGradient><radialGradient id="Degradado_sin_nombre_32" cx="-152.37" cy="-49.94" r="1.33" gradientTransform="translate(-113.54 53175.71) rotate(90) scale(346.3 5.92)" gradientUnits="userSpaceOnUse"><stop offset="0" stop-color="#fff" stop-opacity="0.7"></stop><stop offset="0.94" stop-color="#fff" stop-opacity="0"></stop><stop offset="1" stop-color="#fff" stop-opacity="0"></stop></radialGradient><radialGradient id="Degradado_sin_nombre_31" cx="-152.05" cy="-56.42" r="1.33" gradientTransform="translate(-58.16 27342.17) rotate(90) scale(177.31 4.27)" gradientUnits="userSpaceOnUse"><stop offset="0" stop-color="#31160d" stop-opacity="0.5"></stop><stop offset="1" stop-color="#31160d" stop-opacity="0"></stop></radialGradient><linearGradient id="Degradado_sin_nombre_18" x1="-153.2" y1="-33.76" x2="-151.84" y2="-33.76" gradientTransform="matrix(53.91, 283.97, 283.97, -53.91, 17861.73, 41711.22)" gradientUnits="userSpaceOnUse"><stop offset="0" stop-color="#fcdf04"></stop><stop offset="0.04" stop-color="#fcdf04"></stop><stop offset="0.93" stop-color="#fcdf04"></stop><stop offset="0.93" stop-color="#f1d305"></stop><stop offset="0.95" stop-color="#d4b208"></stop><stop offset="0.97" stop-color="#a47c0d"></stop><stop offset="0.99" stop-color="#653513"></stop><stop offset="1" stop-color="#653513"></stop></linearGradient><linearGradient id="Degradado_sin_nombre_28" x1="-152.49" y1="-31.63" x2="-150.94" y2="-31.63" gradientTransform="matrix(-224.08, 0, 0, 224.08, -33874.27, 7482.87)" gradientUnits="userSpaceOnUse"><stop offset="0" stop-color="#653513"></stop><stop offset="0.01" stop-color="#7d5011"></stop><stop offset="0.04" stop-color="#b38d0b"></stop><stop offset="0.07" stop-color="#dbb907"></stop><stop offset="0.09" stop-color="#f3d505"></stop><stop offset="0.1" stop-color="#fcdf04"></stop><stop offset="1" stop-color="#fcdf04"></stop></linearGradient><linearGradient id="Degradado_sin_nombre_20" x1="-153.37" y1="-33.08" x2="-151.9" y2="-33.08" gradientTransform="matrix(171.95, -104.88, -104.88, -171.95, 22981.56, -21283.5)" gradientUnits="userSpaceOnUse"><stop offset="0" stop-color="#653513"></stop><stop offset="0.75" stop-color="#653513"></stop><stop offset="0.77" stop-color="#7d5011"></stop><stop offset="0.81" stop-color="#b38d0b"></stop><stop offset="0.85" stop-color="#dbb907"></stop><stop offset="0.88" stop-color="#f3d505"></stop><stop offset="0.9" stop-color="#fcdf04"></stop><stop offset="1" stop-color="#fcdf04"></stop></linearGradient><linearGradient id="Degradado_sin_nombre_21" x1="-152.32" y1="-32.11" x2="-150.95" y2="-32.11" gradientTransform="matrix(28.71, -89.96, -89.96, -28.71, 1687.68, -14490.51)" gradientUnits="userSpaceOnUse"><stop offset="0" stop-color="#653513"></stop><stop offset="0.6" stop-color="#653513"></stop><stop offset="0.62" stop-color="#7d5011"></stop><stop offset="0.67" stop-color="#b38d0b"></stop><stop offset="0.71" stop-color="#dbb907"></stop><stop offset="0.75" stop-color="#f3d505"></stop><stop offset="0.77" stop-color="#fcdf04"></stop><stop offset="1" stop-color="#fcdf04"></stop></linearGradient><linearGradient id="Degradado_sin_nombre_22" x1="-153.18" y1="-33.57" x2="-151.82" y2="-33.57" gradientTransform="matrix(0, 225.37, 225.37, 0, 7639.42, 34569.99)" gradientUnits="userSpaceOnUse"><stop offset="0" stop-color="#fcdf04"></stop><stop offset="0.02" stop-color="#fcdf04"></stop><stop offset="0.07" stop-color="#fdd401" stop-opacity="0.86"></stop><stop offset="0.09" stop-color="#fdcf00" stop-opacity="0.8"></stop><stop offset="0.17" stop-color="#fdcc00" stop-opacity="0.74"></stop><stop offset="0.33" stop-color="#fcc401" stop-opacity="0.57"></stop><stop offset="0.39" stop-color="#fcc101" stop-opacity="0.5"></stop><stop offset="0.48" stop-color="#fdcc00" stop-opacity="0.27"></stop><stop offset="0.5" stop-color="#fdcf00" stop-opacity="0.2"></stop><stop offset="0.55" stop-color="#fdcc00" stop-opacity="0.26"></stop><stop offset="0.63" stop-color="#fcc401" stop-opacity="0.43"></stop><stop offset="0.65" stop-color="#fcc101" stop-opacity="0.5"></stop><stop offset="0.92" stop-color="#fdcf00" stop-opacity="0.5"></stop><stop offset="0.94" stop-color="#fdd201" stop-opacity="0.58"></stop><stop offset="0.97" stop-color="#fcd802" stop-opacity="0.79"></stop><stop offset="0.99" stop-color="#fcdf04"></stop><stop offset="1" stop-color="#fcdf04"></stop></linearGradient><linearGradient id="Degradado_sin_nombre_23" x1="-153.2" y1="-33.63" x2="-151.82" y2="-33.63" gradientTransform="matrix(59.3, 283.29, 283.29, -59.3, 18711.55, 41421.41)" gradientUnits="userSpaceOnUse"><stop offset="0" stop-color="#31160d" stop-opacity="0"></stop><stop offset="0.01" stop-color="#31160d" stop-opacity="0"></stop><stop offset="0.1" stop-color="#31160d" stop-opacity="0.2"></stop><stop offset="0.34" stop-color="#31160d" stop-opacity="0.5"></stop><stop offset="0.58" stop-color="#31160d" stop-opacity="0.2"></stop><stop offset="0.77" stop-color="#31160d" stop-opacity="0.5"></stop><stop offset="0.89" stop-color="#31160d" stop-opacity="0"></stop><stop offset="0.98" stop-color="#31160d"></stop><stop offset="1" stop-color="#31160d"></stop></linearGradient><linearGradient id="Degradado_sin_nombre_24" x1="-152.13" y1="-27.69" x2="-150.63" y2="-27.69" gradientTransform="matrix(14.91, -23.2, -23.2, -14.91, 1746.72, -3904.57)" gradientUnits="userSpaceOnUse"><stop offset="0" stop-color="#fcdf04" stop-opacity="0"></stop><stop offset="0.76" stop-color="#fcdf04" stop-opacity="0"></stop><stop offset="0.79" stop-color="#e9ca06" stop-opacity="0.12"></stop><stop offset="0.87" stop-color="#b8930b" stop-opacity="0.45"></stop><stop offset="0.96" stop-color="#693a13" stop-opacity="0.97"></stop><stop offset="0.97" stop-color="#653513"></stop><stop offset="1" stop-color="#653513"></stop></linearGradient><linearGradient id="Degradado_sin_nombre_25" x1="-153.37" y1="-33.08" x2="-151.9" y2="-33.08" gradientTransform="matrix(171.95, -104.88, -104.88, -171.95, 22981.56, -21283.5)" gradientUnits="userSpaceOnUse"><stop offset="0" stop-color="#31160d"></stop><stop offset="0.75" stop-color="#31160d"></stop><stop offset="0.76" stop-color="#462b0c"></stop><stop offset="0.8" stop-color="#937709"></stop><stop offset="0.83" stop-color="#ccaf06"></stop><stop offset="0.85" stop-color="#efd205"></stop><stop offset="0.87" stop-color="#fcdf04"></stop><stop offset="1" stop-color="#fcdf04"></stop></linearGradient><linearGradient id="Degradado_sin_nombre_26" x1="-152.72" y1="-36.4" x2="-151.36" y2="-36.4" gradientTransform="matrix(0, -46.7, -46.7, 0, -1418.88, -6728.06)" gradientUnits="userSpaceOnUse"><stop offset="0" stop-color="#31160d"></stop><stop offset="0.1" stop-color="#31160d"></stop><stop offset="0.4" stop-color="#31160d" stop-opacity="0.5"></stop><stop offset="0.74" stop-color="#31160d" stop-opacity="0.5"></stop><stop offset="0.77" stop-color="#5a3e0b" stop-opacity="0.6"></stop><stop offset="0.84" stop-color="#9f8308" stop-opacity="0.77"></stop><stop offset="0.9" stop-color="#d1b406" stop-opacity="0.89"></stop><stop offset="0.94" stop-color="#f0d305" stop-opacity="0.97"></stop><stop offset="0.96" stop-color="#fcdf04"></stop><stop offset="1" stop-color="#fcdf04"></stop></linearGradient><radialGradient id="Degradado_sin_nombre_27" cx="-158.04" cy="-33.68" r="1.33" gradientTransform="translate(5580.62 1151.07) scale(34.87 21.83)" gradientUnits="userSpaceOnUse"><stop offset="0" stop-color="#fff" stop-opacity="0.85"></stop><stop offset="0.37" stop-color="#fff" stop-opacity="0.85"></stop><stop offset="1" stop-color="#fff" stop-opacity="0"></stop></radialGradient><linearGradient id="Degradado_sin_nombre_28-2" x1="-152.49" y1="-31.61" x2="-150.94" y2="-31.61" xlink:href="#Degradado_sin_nombre_28"></linearGradient><linearGradient id="Degradado_sin_nombre_29" x1="-154.41" y1="-33.31" x2="-152.85" y2="-33.31" gradientTransform="matrix(97.12, 0, 0, -97.12, 15005.86, -3211.2)" gradientUnits="userSpaceOnUse"><stop offset="0" stop-color="#fcdf04"></stop><stop offset="0.03" stop-color="#fcdf04"></stop><stop offset="0.05" stop-color="#efd205" stop-opacity="0.97"></stop><stop offset="0.09" stop-color="#cbaf06" stop-opacity="0.88"></stop><stop offset="0.14" stop-color="#927609" stop-opacity="0.74"></stop><stop offset="0.21" stop-color="#452a0c" stop-opacity="0.55"></stop><stop offset="0.22" stop-color="#31160d" stop-opacity="0.5"></stop><stop offset="0.42" stop-color="#31160d"></stop><stop offset="0.56" stop-color="#31160d"></stop><stop offset="0.66" stop-color="#31160d" stop-opacity="0.5"></stop><stop offset="0.8" stop-color="#31160d" stop-opacity="0"></stop><stop offset="1" stop-color="#31160d" stop-opacity="0"></stop></linearGradient><radialGradient id="Degradado_sin_nombre_30-2" cx="-160.56" cy="-37.26" r="1.33" gradientTransform="matrix(26.45, 6.3, -4.54, 14.61, 4130.56, 1572.93)" xlink:href="#Degradado_sin_nombre_30"></radialGradient><radialGradient id="Degradado_sin_nombre_31-2" cx="-153.12" cy="5.12" r="1.33" gradientTransform="translate(111.78 25173.48) rotate(90) scale(163.04 4.68)" xlink:href="#Degradado_sin_nombre_31"></radialGradient><radialGradient id="Degradado_sin_nombre_32-2" cx="-152.92" cy="-4.75" r="1.33" gradientTransform="translate(57.61 56481.77) rotate(90) scale(368 6.3)" xlink:href="#Degradado_sin_nombre_32"></radialGradient></defs><path class="cls-1 NbRqfkkC_0" d="M67.72,724.63a2.31,2.31,0,0,1-1.33-.26.42.42,0,0,1-.16-.43c.09-.48,1-1.92,7.86-4.91,6.63-3.13,14.62-8,25.18-15.22,25.73-17.16,38.11-35.08,44.52-63.91,6.56-29.46,6.74-71.2,6.74-136.86V351.7c0-81.65.15-96.37-1.05-113.13-1-15.34-4.92-31.42-26.5-34.28a122.85,122.85,0,0,0-16.76-1c-6.18,0-7.45-.71-7.45-1.31,0-.85,2.43-1.83,9.28-1.83,20.18,0,46.77.89,59.55,1.32,4.39.15,7.3.25,8.05.25s4.72-.14,10-.32c13.41-.47,35.85-1.25,48.59-1.25,6.75,0,9.27,1.12,9.27,1.83s-2.16,1.31-6.28,1.31a84.72,84.72,0,0,0-15.61,1c-15.78,2.88-19.08,18.18-20.13,34.28-1.2,16.76-1.35,31.48-1.35,113.13V477.38c0,85.32.15,117.25-17.77,154.38-8.27,17-23.6,34.91-44.5,51.89A287.17,287.17,0,0,1,71.4,723.8a9.6,9.6,0,0,1-3.68.84" transform="translate(-3.54 -9.5)"></path><path class="cls-1 NbRqfkkC_1" d="M165.27,631.34c-.08.2-.35.9-.4,1h17.22c.11-.21.45-.91.52-1H165.27" transform="translate(-3.54 -9.5)"></path><path class="cls-1 NbRqfkkC_2" d="M234.28,199.84c-17.95,0-55.64,1.57-58.63,1.57s-40.68-1.57-67.6-1.57c-6.8,0-9.3.94-9.54,1.93,22.29,0,35.07,1,49.43,7.06A115.83,115.83,0,0,1,175.65,225c5.08-4.72,14.08-11,24.78-16.58,12.69-6.6,22.31-6.62,43.39-6.62-.3-1-3.31-1.93-9.54-1.93" transform="translate(-3.54 -9.5)"></path><path class="cls-1 NbRqfkkC_3" d="M164.91,631.86H145.22c-6,34.55-18.84,53.53-46.14,71.74C90.7,709.36,81.73,715.13,74,718.79c-6,2.62-9,4.71-7.77,5.76,45.9-20.62,81.76-49.27,98.73-92.69" transform="translate(-3.54 -9.5)"></path><path class="cls-1 NbRqfkkC_4" d="M147.94,208.83c-14.35-6.1-27.13-7-49.43-7.06a.45.45,0,0,0,0,.16c0,1,2.39,1.57,7.78,1.57A123.23,123.23,0,0,1,123,204.55c14.3,1.9,21.07,9.57,24.16,20.42a66,66,0,0,1,2.16,13.62c1.19,16.76,1.19,31.42,1.19,113.11V503c0,59.78-.25,99.8-5.3,128.82h19.69c7-17.79,10.74-38.05,10.74-61.27V225a116,116,0,0,0-27.72-16.14" transform="translate(-3.54 -9.5)"></path><path class="cls-1 NbRqfkkC_5" d="M200.78,351.7c0-81.69,0-96.36,1.19-113.11A92.78,92.78,0,0,1,203.74,225c2.44-11,7.5-18.51,18-20.42a83.57,83.57,0,0,1,15.55-1.05c3.59,0,6.58-.52,6.58-1.57a.45.45,0,0,0,0-.16c-21.09,0-30.71,0-43.39,6.62-10.69,5.56-19.7,11.86-24.78,16.58V570.59c0,23.22-3.79,43.48-10.74,61.27h17.92c17.95-37.18,17.95-69.65,17.95-154.48V351.7" transform="translate(-3.54 -9.5)"></path><path class="cls-1 NbRqfkkC_6" d="M66.18,724.55c.6.52,3,.52,5.38-.52,46.66-19.9,93.92-56.56,111.27-92.17H164.91c-17,43.42-52.83,72.07-98.73,92.69" transform="translate(-3.54 -9.5)"></path><path class="cls-1 NbRqfkkC_7" d="M175.65,225a116,116,0,0,0-27.71-16.14c-14.35-6.1-27.13-7-49.43-7.06a.45.45,0,0,0,0,.16c0,1,2.39,1.57,7.78,1.57A123.23,123.23,0,0,1,123,204.55c14.3,1.9,21.07,9.57,24.16,20.42a58,58,0,0,1,1.71,8.79h26.77V225" transform="translate(-3.54 -9.5)"></path><path class="cls-1 NbRqfkkC_8" d="M175.65,233.76H148.88q.28,2.36.45,4.83c1.2,16.75,1.2,31.42,1.2,113.11V503c0,24.69-.05,46-.45,64.56h25.57V233.76" transform="translate(-3.54 -9.5)"></path><path class="cls-1 NbRqfkkC_9" d="M200.43,208.39c-10.69,5.56-19.7,11.86-24.78,16.58V570.59c0,23.22-3.79,43.48-10.74,61.27h17.92c17.95-37.18,17.95-69.65,17.95-154.48V351.7c0-81.69,0-96.36,1.19-113.11A92.78,92.78,0,0,1,203.74,225c1.34-6,3.46-11,6.82-14.59l-5-4.37c-1.68.68-3.38,1.46-5.14,2.38" transform="translate(-3.54 -9.5)"></path><path class="cls-1 NbRqfkkC_10" d="M221.71,204.55a83.72,83.72,0,0,1,15.56-1.05c3.59,0,6.58-.52,6.58-1.57a.9.9,0,0,0,0-.16c-15.41,0-24.7,0-33.53,2.59l3.64,3.19a20.87,20.87,0,0,1,7.78-3" transform="translate(-3.54 -9.5)"></path><path class="cls-1 NbRqfkkC_11" d="M234.28,199.84c-17.95,0-55.64,1.57-58.63,1.57s-40.68-1.57-67.6-1.57c-6.8,0-9.3.94-9.54,1.93,22.29,0,35.07,1,49.43,7.06A115.83,115.83,0,0,1,175.65,225c5.08-4.72,14.08-11,24.78-16.58,12.69-6.6,22.31-6.62,43.39-6.62-.3-1-3.31-1.93-9.54-1.93" transform="translate(-3.54 -9.5)"></path><path class="cls-1 NbRqfkkC_12" d="M175.65,225a116,116,0,0,0-27.71-16.14c-14.35-6.1-27.13-7-49.43-7.06a.45.45,0,0,0,0,.16c0,1,2.39,1.57,7.78,1.57A123.23,123.23,0,0,1,123,204.55c14.3,1.9,21.07,9.57,24.16,20.42.13.45.25.91.37,1.38h28.11V225" transform="translate(-3.54 -9.5)"></path><path class="cls-1 NbRqfkkC_13" d="M164.91,631.86H145.22c-6,34.55-18.84,53.53-46.14,71.74C90.7,709.36,81.73,715.13,74,718.79c-6,2.62-9,4.71-7.77,5.76,45.9-20.62,81.76-49.27,98.73-92.69" transform="translate(-3.54 -9.5)"></path><path class="cls-1 NbRqfkkC_14" d="M66.18,724.55c.6.52,3,.52,5.38-.52,46.66-19.9,93.92-56.56,111.27-92.17H164.91c-17,43.42-52.83,72.07-98.73,92.69" transform="translate(-3.54 -9.5)"></path><path class="cls-1 NbRqfkkC_15" d="M175.65,537v33.59c0,23.22-3.79,43.48-10.74,61.27h17.92c13-26.89,16.57-51.31,17.56-94.86H175.65" transform="translate(-3.54 -9.5)"></path><path class="cls-1 NbRqfkkC_16" d="M164.91,631.86c7-17.79,10.74-38.05,10.74-61.27v-3H150.08c-.58,26.39-1.89,47.22-4.86,64.26h19.69" transform="translate(-3.54 -9.5)"></path><path class="cls-1 NbRqfkkC_17" d="M147.94,208.83c-14.35-6.1-27.13-7-49.43-7.06a.45.45,0,0,0,0,.16c0,1,2.39,1.57,7.78,1.57A123.23,123.23,0,0,1,123,204.55c14.3,1.9,21.07,9.57,24.16,20.42a66,66,0,0,1,2.16,13.62c1.19,16.76,1.19,31.42,1.19,113.11V503c0,59.78-.25,99.8-5.3,128.82h19.69c7-17.79,10.74-38.05,10.74-61.27V225a116,116,0,0,0-27.72-16.14" transform="translate(-3.54 -9.5)"></path><path class="cls-1 NbRqfkkC_18" d="M200.78,351.7c0-81.69,0-96.36,1.19-113.11A92.78,92.78,0,0,1,203.74,225c2.44-11,7.5-18.51,18-20.42a83.57,83.57,0,0,1,15.55-1.05c3.59,0,6.58-.52,6.58-1.57a.45.45,0,0,0,0-.16c-21.09,0-30.71,0-43.39,6.62-10.69,5.56-19.7,11.86-24.78,16.58V570.59c0,23.22-3.79,43.48-10.74,61.27h17.92c17.95-37.18,17.95-69.65,17.95-154.48V351.7" transform="translate(-3.54 -9.5)"></path><path class="cls-1 NbRqfkkC_19" d="M241,409.38c-24.95,0-49.41-.73-75.31-1.5-27.1-.81-55.12-1.64-85-1.64-7,0-17.33.37-28.23.76s-22.48.81-30.4.81-9.27-.82-9.27-1.31c0-.8,1.52-1.31,3.88-1.31a89,89,0,0,0,18-1.58C48,401,50.45,385.31,52.84,370.17l-.11-.29c3-22,2.85-62.46,2.85-113.67V164c0-81.65.15-96.36-1-113.13-1-15.34-4.92-31.42-26.5-34.28a122.85,122.85,0,0,0-16.76-1c-6.18,0-7.45-.71-7.45-1.31,0-.84,2.43-1.83,9.28-1.83,20.18,0,46.77.89,59.55,1.32,4.39.15,7.3.25,8,.25s5.23-.13,11.25-.32c15.19-.47,40.62-1.25,53.36-1.25,6.75,0,9.27,1.12,9.27,1.83s-2.16,1.31-6.28,1.31c-4.87,0-15,0-21,1C114.46,19,108,29.55,106.57,50.91c-1.19,16.77-1.34,31.48-1.34,113.13v93.21c0,73.52,2.13,110.25,13.39,120.11,9,7.86,23.19,12.12,72.08,12.12,18.19,0,43.14,0,59.34-4.2,17.83-4.68,28.88-11.87,32.53-34.78,1.31-6.3,2.52-7.63,3.3-7.63a.39.39,0,0,1,.23.13c.75.76,1.21,4.17.68,7.43l-.1.67c-3.15,22.28-6.51,39.88-9.46,49.57-2.34,7.68-9.4,8.71-36.21,8.71" transform="translate(-3.54 -9.5)"></path><path class="cls-1 NbRqfkkC_20" d="M251.32,384.94l-1.2.32L259.31,397c.27-.05.95-.13.95-.13l.23-.21-9.17-11.69" transform="translate(-3.54 -9.5)"></path><path class="cls-1 NbRqfkkC_21" d="M80.71,37.31c5.07-4.72,14.08-11,24.77-16.58,12.72-6.62,28-6.62,49.37-6.62-.29-1-3.3-1.93-9.54-1.93-17.94,0-61.61,1.57-64.61,1.57S40,12.18,13.11,12.18c-6.81,0-9.31.94-9.55,1.93,22.29,0,35.08,1,49.43,7.06C66.35,26.84,75.34,33,80.7,37.31" transform="translate(-3.54 -9.5)"></path><path class="cls-1 NbRqfkkC_22" d="M53,21.17c-14.35-6.1-27.13-7-49.43-7.06a.88.88,0,0,0,0,.16c0,1.05,2.39,1.57,7.77,1.57a123.11,123.11,0,0,1,16.75,1.05c19.74,2.62,25.13,16.23,26.32,34,1.2,16.76,1.2,31.42,1.2,113.11v92.17c0,50.27,0,91.64-3,113.63-2.39,15.19-4.79,30.9-18,33.52-7.18,1.57-16.15,1.57-17.94,1.57-2.39,0-4.18.52-4.19,1.56,18.36-.05,32-.61,43.54-6.61,10.7-5.57,19.58-11.87,24.66-16.59v-346A116,116,0,0,0,53,21.17" transform="translate(-3.54 -9.5)"></path><path class="cls-1 NbRqfkkC_23" d="M277.52,400.74c4.78-15.71,9-46.09,9.57-50.27.59-3.6,0-7.7-1.13-7.85-3.74,35.29-16.36,46-25.54,54.45,5.48,3.55,9.19,6.16,13.13,9.12a9.16,9.16,0,0,0,4-5.45" transform="translate(-3.54 -9.5)"></path><path class="cls-1 NbRqfkkC_24" d="M112.11,394.89c-14.74-3.29-26-7.24-31.4-11.6-5.08,4.72-14,11-24.66,16.58-11.53,6-25.18,6.57-43.54,6.62h0c0,1.05,3,1.57,9.57,1.57,15.55,0,44.27-1.57,58.62-1.57,58,0,108.88,3.15,160.33,3.15,18.7,0,27.86-.51,32.53-3.45-3.95-3-7.66-5.57-13.14-9.12-18.35,3.93-117.5,4.71-148.31-2.18" transform="translate(-3.54 -9.5)"></path><path class="cls-1 NbRqfkkC_25" d="M286,342.63l-.07,0c-1.19,0-2.39,2.1-3.58,7.86-3.56,22.27-14.14,29.69-31.74,34.41l9.58,12.25.27-.06c9.19-8.45,21.81-19.16,25.54-54.44" transform="translate(-3.54 -9.5)"></path><path class="cls-1 NbRqfkkC_26" d="M250,385c-16.15,4.19-41.28,4.19-59.22,4.19-46.66,0-62.22-3.67-71.79-12.05-10.77-9.42-13.16-42.94-13.16-119.92V164c0-81.69,0-96.36,1.2-113.11,1.19-18.33,6-31.42,20.34-34,6-1.05,16.15-1.05,20.93-1.05,3.59,0,6.58-.52,6.58-1.57a.45.45,0,0,0,0-.16c-21.35,0-36.65,0-49.37,6.62C94.79,26.29,85.79,32.59,80.71,37.31v346c5.37,4.36,16.66,8.31,31.4,11.61,30.67,6.85,129,6.11,148,2.23l-9.58-12.25L250,385" transform="translate(-3.54 -9.5)"></path><path class="cls-1 NbRqfkkC_27" d="M54.29,49.76c0,.39.07.78.09,1.17,1.2,16.75,1.2,31.42,1.2,113.11V256.2c0,46.61-.6,73.32-1.2,93.74q-.12,3.93-.32,7.51H80.7V49.77H54.29" transform="translate(-3.54 -9.5)"></path><path class="cls-1 NbRqfkkC_28" d="M250.57,384.88,250,385c-16.15,4.19-41.27,4.19-59.22,4.19-46.66,0-62.22-3.67-71.79-12.05-10.76-9.42-13.16-42.94-13.16-119.92V164c0-81.69,0-96.35,1.2-113.11a86.09,86.09,0,0,1,1.53-12L90.65,29.58a87,87,0,0,0-9.94,7.73v346c5.37,4.35,16.66,8.3,31.4,11.6,30.67,6.85,129,6.11,148,2.23l-9.58-12.25" transform="translate(-3.54 -9.5)"></path><path class="cls-1 NbRqfkkC_29" d="M127.37,16.89c6-1.05,16.15-1.05,20.93-1.05,3.59,0,6.58-.52,6.58-1.57a.45.45,0,0,0,0-.16c-21.35,0-36.65,0-49.37,6.62-3,1.54-5.79,3.15-8.45,4.75l14.64,3.71c3.12-6.54,8-10.9,15.69-12.3" transform="translate(-3.54 -9.5)"></path><path class="cls-1 NbRqfkkC_30" d="M286,342.63l-.07,0c-1.19,0-2.39,2.1-3.58,7.86-3.56,22.27-14.14,29.69-31.74,34.41l9.58,12.25.27-.06c9.19-8.45,21.81-19.16,25.54-54.44" transform="translate(-3.54 -9.5)"></path><path class="cls-1 NbRqfkkC_31" d="M277.52,400.74c4.78-15.71,9-46.09,9.57-50.27.59-3.6,0-7.7-1.13-7.85-3.74,35.29-16.36,46-25.54,54.45,5.48,3.55,9.19,6.16,13.13,9.12a9.16,9.16,0,0,0,4-5.45" transform="translate(-3.54 -9.5)"></path><path class="cls-1 NbRqfkkC_32" d="M80.71,383.29c-5.08,4.72-14,11-24.66,16.59-11.53,6-25.18,6.56-43.54,6.61h0c0,1.05,3,1.57,9.57,1.57,15.55,0,44.27-1.57,58.62-1.57,10,0,19.73.09,29.32.25V394.42c-13.72-3.2-24.2-7-29.32-11.13" transform="translate(-3.54 -9.5)"></path><path class="cls-1 NbRqfkkC_33" d="M273.56,406.19c-3.95-3-7.66-5.57-13.14-9.12-18.35,3.93-117.5,4.71-148.31-2.18-.71-.16-1.4-.31-2.09-.48v12.33c46.2.74,88.4,2.9,131,2.9,18.7,0,27.86-.51,32.53-3.45" transform="translate(-3.54 -9.5)"></path><path class="cls-1 NbRqfkkC_34" d="M80.71,37.31c5.07-4.72,14.08-11,24.77-16.58,12.72-6.62,28-6.62,49.37-6.62-.29-1-3.3-1.93-9.54-1.93-17.94,0-61.61,1.57-64.61,1.57S40,12.18,13.11,12.18c-6.81,0-9.31.94-9.55,1.93,22.29,0,35.08,1,49.43,7.06C66.35,26.84,75.34,33,80.7,37.31" transform="translate(-3.54 -9.5)"></path><path class="cls-1 NbRqfkkC_35" d="M80.71,37.31A116.15,116.15,0,0,0,53,21.17c-14.35-6.1-27.13-7-49.43-7.06a.88.88,0,0,0,0,.16c0,1.05,2.39,1.57,7.77,1.57a123.11,123.11,0,0,1,16.75,1.05c14.31,1.9,21.07,9.57,24.16,20.42.34,1.17.62,2.37.88,3.6H80.7v-3.6" transform="translate(-3.54 -9.5)"></path><path class="cls-1 NbRqfkkC_36" d="M80.71,37.31v346l30-24.57c-3.85-18.47-4.9-50.4-4.9-101.44V164c0-81.69,0-96.35,1.2-113.11a82.4,82.4,0,0,1,1.9-13.73H80.83l-.13.11" transform="translate(-3.54 -9.5)"></path><path class="cls-1 NbRqfkkC_37" d="M53,21.17c-14.35-6.1-27.13-7-49.43-7.06a.88.88,0,0,0,0,.16c0,1.05,2.39,1.57,7.77,1.57a123.11,123.11,0,0,1,16.75,1.05c19.74,2.62,25.13,16.23,26.32,34,1.2,16.76,1.2,31.42,1.2,113.11v92.17c0,50.27,0,91.64-3,113.63-2.39,15.19-4.79,30.9-18,33.52-7.18,1.57-16.15,1.57-17.94,1.57-2.39,0-4.18.52-4.19,1.56,18.36-.05,32-.61,43.54-6.61,10.7-5.57,19.58-11.87,24.66-16.59v-346A116,116,0,0,0,53,21.17" transform="translate(-3.54 -9.5)"></path><path class="cls-2 NbRqfkkC_38" d="M82.94,722a2.31,2.31,0,0,1-1.33-.26.42.42,0,0,1-.16-.43c.09-.48,1-1.93,7.86-4.91,6.63-3.13,14.62-8,25.18-15.22C140.22,684,152.6,666.06,159,637.23c6.56-29.46,6.74-71.2,6.74-136.86V349c0-81.65.15-96.37-1.05-113.13-1-15.34-4.92-31.42-26.5-34.28a122.85,122.85,0,0,0-16.76-1.05c-6.18,0-7.46-.71-7.46-1.31,0-.85,2.44-1.83,9.29-1.83,20.18,0,46.77.89,59.55,1.32,4.39.15,7.3.25,8.05.25s4.72-.14,10-.32c13.41-.47,35.85-1.25,48.59-1.25,6.75,0,9.27,1.12,9.27,1.83s-2.16,1.31-6.28,1.31a84.72,84.72,0,0,0-15.61,1.05c-15.78,2.88-19.08,18.18-20.13,34.28-1.2,16.76-1.35,31.48-1.35,113.13V474.71c0,85.32.15,117.25-17.77,154.38-8.27,17-23.6,34.91-44.5,51.89a287.17,287.17,0,0,1-66.51,40.15,9.6,9.6,0,0,1-3.68.84" transform="translate(-3.54 -9.5)"></path><path class="cls-2 NbRqfkkC_39" d="M180.49,628.67c-.08.2-.35.9-.4,1.05h17.22c.11-.21.45-.91.52-1.05H180.49" transform="translate(-3.54 -9.5)"></path><path class="cls-2 NbRqfkkC_40" d="M249.5,197.17c-17.95,0-55.64,1.57-58.63,1.57s-40.68-1.57-67.6-1.57c-6.8,0-9.3.94-9.54,1.93,22.29,0,35.07,1,49.43,7.06a115.83,115.83,0,0,1,27.71,16.14c5.08-4.72,14.08-11,24.78-16.58,12.69-6.6,22.31-6.62,43.39-6.62-.3-1-3.31-1.93-9.54-1.93" transform="translate(-3.54 -9.5)"></path><path class="cls-2 NbRqfkkC_41" d="M180.13,629.19H160.44c-6,34.55-18.84,53.53-46.14,71.74-8.38,5.76-17.35,11.52-25.13,15.19-6,2.62-9,4.71-7.77,5.76,45.9-20.62,81.76-49.27,98.73-92.69" transform="translate(-3.54 -9.5)"></path><path class="cls-2 NbRqfkkC_42" d="M163.16,206.16c-14.35-6.1-27.13-7-49.43-7.06a.45.45,0,0,0,0,.16c0,1.05,2.39,1.57,7.78,1.57a123.35,123.35,0,0,1,16.75,1c14.3,1.9,21.07,9.57,24.16,20.42a66,66,0,0,1,2.16,13.62c1.19,16.76,1.19,31.42,1.19,113.11V500.37c0,59.78-.25,99.8-5.3,128.82h19.69c7-17.79,10.74-38.05,10.74-61.27V222.3a116,116,0,0,0-27.72-16.14" transform="translate(-3.54 -9.5)"></path><path class="cls-2 NbRqfkkC_43" d="M216,349c0-81.69,0-96.36,1.19-113.11A92.78,92.78,0,0,1,219,222.3c2.44-11,7.5-18.51,18-20.42a83.72,83.72,0,0,1,15.56-1c3.59,0,6.58-.52,6.58-1.57a.45.45,0,0,0,0-.16c-21.09,0-30.71,0-43.39,6.62C205,211.28,196,217.58,190.87,222.3V567.92c0,23.22-3.79,43.48-10.74,61.27h17.92C216,592,216,559.54,216,474.71V349" transform="translate(-3.54 -9.5)"></path><path class="cls-2 NbRqfkkC_44" d="M81.4,721.88c.6.52,3,.52,5.38-.52,46.66-19.9,93.92-56.56,111.27-92.17H180.13c-17,43.42-52.83,72.07-98.73,92.69" transform="translate(-3.54 -9.5)"></path><path class="cls-2 NbRqfkkC_45" d="M190.87,222.3a116,116,0,0,0-27.71-16.14c-14.35-6.1-27.13-7-49.43-7.06a.45.45,0,0,0,0,.16c0,1.05,2.39,1.57,7.78,1.57a123.35,123.35,0,0,1,16.75,1c14.3,1.9,21.07,9.57,24.16,20.42a56.8,56.8,0,0,1,1.7,8.79h26.78V222.3" transform="translate(-3.54 -9.5)"></path><path class="cls-2 NbRqfkkC_46" d="M190.87,231.09H164.1q.28,2.35.45,4.83c1.2,16.75,1.2,31.42,1.2,113.11V500.37c0,24.68-.05,46-.45,64.56h25.57V231.09" transform="translate(-3.54 -9.5)"></path><path class="cls-2 NbRqfkkC_47" d="M215.65,205.72C205,211.28,196,217.58,190.87,222.3V567.92c0,23.22-3.79,43.48-10.74,61.27h17.92C216,592,216,559.54,216,474.71V349c0-81.69,0-96.36,1.19-113.11A92.78,92.78,0,0,1,219,222.3c1.34-6,3.46-11,6.82-14.59l-5-4.37c-1.67.68-3.37,1.46-5.13,2.38" transform="translate(-3.54 -9.5)"></path><path class="cls-2 NbRqfkkC_48" d="M236.93,201.88a83.72,83.72,0,0,1,15.56-1c3.59,0,6.58-.52,6.58-1.57a.9.9,0,0,0,0-.16c-15.41,0-24.7,0-33.53,2.59l3.64,3.19a20.87,20.87,0,0,1,7.78-3" transform="translate(-3.54 -9.5)"></path><path class="cls-2 NbRqfkkC_49" d="M249.5,197.17c-17.95,0-55.64,1.57-58.63,1.57s-40.68-1.57-67.6-1.57c-6.8,0-9.3.94-9.54,1.93,22.29,0,35.07,1,49.43,7.06a115.83,115.83,0,0,1,27.71,16.14c5.08-4.72,14.08-11,24.78-16.58,12.69-6.6,22.31-6.62,43.39-6.62-.3-1-3.31-1.93-9.54-1.93" transform="translate(-3.54 -9.5)"></path><path class="cls-2 NbRqfkkC_50" d="M190.87,222.3a116,116,0,0,0-27.71-16.14c-14.35-6.1-27.13-7-49.43-7.06a.45.45,0,0,0,0,.16c0,1.05,2.39,1.57,7.78,1.57a123.35,123.35,0,0,1,16.75,1c14.3,1.9,21.07,9.57,24.16,20.42.13.45.25.91.37,1.38h28.11V222.3" transform="translate(-3.54 -9.5)"></path><path class="cls-2 NbRqfkkC_51" d="M180.13,629.19H160.44c-6,34.55-18.84,53.53-46.14,71.74-8.38,5.76-17.35,11.52-25.13,15.19-6,2.62-9,4.71-7.77,5.76,45.9-20.62,81.76-49.27,98.73-92.69" transform="translate(-3.54 -9.5)"></path><path class="cls-2 NbRqfkkC_52" d="M81.4,721.88c.6.52,3,.52,5.38-.52,46.66-19.9,93.92-56.56,111.27-92.17H180.13c-17,43.42-52.83,72.07-98.73,92.69" transform="translate(-3.54 -9.5)"></path><path class="cls-2 NbRqfkkC_53" d="M190.87,534.33v33.59c0,23.22-3.79,43.48-10.74,61.27h17.92c13-26.89,16.57-51.31,17.56-94.86H190.87" transform="translate(-3.54 -9.5)"></path><path class="cls-2 NbRqfkkC_54" d="M180.13,629.19c7-17.79,10.74-38.05,10.74-61.27v-3H165.3c-.58,26.38-1.89,47.22-4.86,64.26h19.69" transform="translate(-3.54 -9.5)"></path><path class="cls-2 NbRqfkkC_55" d="M163.16,206.16c-14.35-6.1-27.13-7-49.43-7.06a.45.45,0,0,0,0,.16c0,1.05,2.39,1.57,7.78,1.57a123.35,123.35,0,0,1,16.75,1c14.3,1.9,21.07,9.57,24.16,20.42a66,66,0,0,1,2.16,13.62c1.19,16.76,1.19,31.42,1.19,113.11V500.37c0,59.78-.25,99.8-5.3,128.82h19.69c7-17.79,10.74-38.05,10.74-61.27V222.3a116,116,0,0,0-27.72-16.14" transform="translate(-3.54 -9.5)"></path><path class="cls-2 NbRqfkkC_56" d="M216,349c0-81.69,0-96.36,1.19-113.11A92.78,92.78,0,0,1,219,222.3c2.44-11,7.5-18.51,18-20.42a83.72,83.72,0,0,1,15.56-1c3.59,0,6.58-.52,6.58-1.57a.45.45,0,0,0,0-.16c-21.09,0-30.71,0-43.39,6.62C205,211.28,196,217.58,190.87,222.3V567.92c0,23.22-3.79,43.48-10.74,61.27h17.92C216,592,216,559.54,216,474.71V349" transform="translate(-3.54 -9.5)"></path><path class="cls-2 NbRqfkkC_57" d="M256.25,406.71c-24.95,0-49.41-.73-75.31-1.5-27.1-.81-55.12-1.64-85-1.64-7.05,0-17.33.37-28.23.76-11.05.4-22.48.81-30.4.81S28,404.32,28,403.83c0-.8,1.52-1.31,3.88-1.31a89,89,0,0,0,18-1.58c13.28-2.64,15.74-18.3,18.13-33.44l-.11-.29c3-22,2.85-62.46,2.85-113.67V161.37c0-81.65.15-96.36-1-113.13-1-15.34-4.92-31.42-26.5-34.28a122.85,122.85,0,0,0-16.76-1.05c-6.18,0-7.45-.71-7.45-1.31,0-.84,2.43-1.83,9.28-1.83,20.18,0,46.77.89,59.55,1.32,4.39.15,7.3.25,8,.25s5.23-.13,11.25-.32c15.19-.47,40.62-1.25,53.36-1.25,6.75,0,9.27,1.12,9.27,1.83s-2.16,1.31-6.28,1.31c-4.87,0-15,0-21,1.05-12.84,2.34-19.33,12.92-20.73,34.28-1.19,16.77-1.34,31.48-1.34,113.13v93.21c0,73.52,2.13,110.25,13.39,120.11,9,7.86,23.19,12.12,72.08,12.12,18.19,0,43.14,0,59.34-4.2,17.83-4.68,28.88-11.87,32.53-34.78,1.31-6.3,2.52-7.63,3.3-7.63a.39.39,0,0,1,.23.13c.75.75,1.21,4.17.68,7.43l-.1.67c-3.15,22.28-6.51,39.88-9.46,49.57-2.34,7.68-9.4,8.71-36.21,8.71" transform="translate(-3.54 -9.5)"></path><path class="cls-2 NbRqfkkC_58" d="M266.54,382.27l-1.2.32,9.19,11.71c.27-.05,1-.13,1-.13l.23-.22-9.17-11.68" transform="translate(-3.54 -9.5)"></path><path class="cls-2 NbRqfkkC_59" d="M95.93,34.64c5.07-4.72,14.08-11,24.77-16.58,12.72-6.62,28-6.62,49.37-6.62-.29-1-3.3-1.94-9.54-1.94-17.95,0-61.61,1.58-64.61,1.58S55.25,9.5,28.33,9.5c-6.81,0-9.31.95-9.55,1.94,22.29,0,35.08,1,49.43,7,13.36,5.68,22.35,11.79,27.71,16.15" transform="translate(-3.54 -9.5)"></path><path class="cls-2 NbRqfkkC_60" d="M68.21,18.5c-14.35-6.1-27.13-7-49.43-7.06a.88.88,0,0,0,0,.16c0,1.05,2.39,1.57,7.77,1.57a123.23,123.23,0,0,1,16.75,1.05C63,16.84,68.41,30.45,69.6,48.26,70.8,65,70.8,79.68,70.8,161.37v92.17c0,50.27,0,91.64-3,113.63-2.39,15.19-4.79,30.9-18,33.52-7.18,1.57-16.15,1.57-17.94,1.57-2.39,0-4.18.52-4.19,1.56,18.36-.05,32-.61,43.54-6.61,10.7-5.57,19.58-11.87,24.66-16.59v-346A116.15,116.15,0,0,0,68.21,18.5" transform="translate(-3.54 -9.5)"></path><path class="cls-2 NbRqfkkC_61" d="M292.74,398.07c4.78-15.71,9-46.09,9.57-50.28.59-3.59,0-7.69-1.13-7.84-3.74,35.29-16.36,46-25.54,54.45,5.48,3.55,9.19,6.16,13.13,9.12a9.16,9.16,0,0,0,4-5.45" transform="translate(-3.54 -9.5)"></path><path class="cls-2 NbRqfkkC_62" d="M127.33,392.22c-14.74-3.29-26-7.24-31.4-11.6-5.08,4.72-14,11-24.66,16.58-11.53,6-25.18,6.57-43.54,6.62h0c0,1.05,3,1.57,9.57,1.57,15.55,0,44.27-1.57,58.62-1.57,58,0,108.88,3.15,160.33,3.15,18.7,0,27.86-.51,32.53-3.45-3.95-3-7.66-5.58-13.14-9.12-18.35,3.92-117.5,4.71-148.31-2.18" transform="translate(-3.54 -9.5)"></path><path class="cls-2 NbRqfkkC_63" d="M301.18,340l-.07,0c-1.19,0-2.39,2.1-3.59,7.86-3.55,22.27-14.13,29.69-31.73,34.41l9.58,12.25.27-.06c9.19-8.45,21.81-19.16,25.54-54.44" transform="translate(-3.54 -9.5)"></path><path class="cls-2 NbRqfkkC_64" d="M265.22,382.36c-16.15,4.19-41.28,4.19-59.22,4.19-46.66,0-62.22-3.67-71.79-12.05-10.77-9.42-13.16-42.94-13.16-119.92V161.37c0-81.69,0-96.36,1.2-113.11,1.19-18.33,6-31.42,20.34-34,6-1.05,16.15-1.05,20.93-1.05,3.59,0,6.58-.52,6.58-1.57a.45.45,0,0,0,0-.16c-21.35,0-36.65,0-49.37,6.62C110,23.62,101,29.92,95.93,34.64v346c5.37,4.36,16.66,8.31,31.4,11.61,30.67,6.85,129,6.11,148,2.23l-9.58-12.25-.57.15" transform="translate(-3.54 -9.5)"></path><path class="cls-2 NbRqfkkC_65" d="M69.51,47.09c0,.39.07.78.09,1.17C70.8,65,70.8,79.68,70.8,161.37v92.16c0,46.61-.6,73.32-1.2,93.74q-.12,3.93-.32,7.51H95.92V47.1H69.51" transform="translate(-3.54 -9.5)"></path><path class="cls-2 NbRqfkkC_66" d="M265.79,382.2l-.57.16c-16.15,4.19-41.28,4.19-59.22,4.19-46.66,0-62.22-3.67-71.79-12.05-10.76-9.42-13.16-42.94-13.16-119.92V161.37c0-81.69,0-96.35,1.2-113.11a86.09,86.09,0,0,1,1.53-12l-17.91-9.32a87,87,0,0,0-9.94,7.73v346c5.37,4.36,16.66,8.31,31.4,11.61,30.67,6.85,129,6.11,148,2.23l-9.58-12.25" transform="translate(-3.54 -9.5)"></path><path class="cls-2 NbRqfkkC_67" d="M142.59,14.22c6-1.05,16.15-1.05,20.93-1.05,3.59,0,6.58-.52,6.58-1.57a.45.45,0,0,0,0-.16c-21.35,0-36.65,0-49.37,6.62-3,1.54-5.79,3.14-8.46,4.75l14.65,3.71c3.12-6.54,8-10.9,15.69-12.3" transform="translate(-3.54 -9.5)"></path><path class="cls-2 NbRqfkkC_68" d="M301.18,340l-.07,0c-1.19,0-2.39,2.1-3.59,7.86-3.55,22.27-14.13,29.69-31.73,34.41l9.58,12.25.27-.06c9.19-8.45,21.81-19.16,25.54-54.44" transform="translate(-3.54 -9.5)"></path><path class="cls-2 NbRqfkkC_69" d="M292.74,398.07c4.78-15.71,9-46.09,9.57-50.28.59-3.59,0-7.69-1.13-7.84-3.74,35.29-16.36,46-25.54,54.45,5.48,3.55,9.19,6.16,13.13,9.12a9.16,9.16,0,0,0,4-5.45" transform="translate(-3.54 -9.5)"></path><path class="cls-2 NbRqfkkC_70" d="M95.93,380.62c-5.08,4.72-14,11-24.66,16.59-11.53,6-25.18,6.56-43.54,6.61h0c0,1.05,3,1.57,9.57,1.57,15.55,0,44.27-1.57,58.62-1.57,10,0,19.73.09,29.32.25V391.75c-13.72-3.2-24.2-7-29.32-11.13" transform="translate(-3.54 -9.5)"></path><path class="cls-2 NbRqfkkC_71" d="M288.78,403.52c-3.95-3-7.66-5.57-13.14-9.12-18.35,3.93-117.5,4.71-148.31-2.18l-2.09-.48v12.33c46.2.74,88.4,2.9,131,2.9,18.7,0,27.86-.51,32.53-3.45" transform="translate(-3.54 -9.5)"></path><path class="cls-2 NbRqfkkC_72" d="M95.93,34.64c5.07-4.72,14.08-11,24.77-16.58,12.72-6.62,28-6.62,49.37-6.62-.29-1-3.3-1.94-9.54-1.94-17.95,0-61.61,1.58-64.61,1.58S55.25,9.5,28.33,9.5c-6.81,0-9.31.95-9.55,1.94,22.29,0,35.08,1,49.43,7,13.36,5.68,22.35,11.79,27.71,16.15" transform="translate(-3.54 -9.5)"></path><path class="cls-2 NbRqfkkC_73" d="M95.93,34.64A116.15,116.15,0,0,0,68.21,18.5c-14.35-6.1-27.13-7-49.43-7.06a.88.88,0,0,0,0,.16c0,1.05,2.39,1.57,7.77,1.57a121.61,121.61,0,0,1,16.75,1.05c14.31,1.9,21.07,9.57,24.16,20.42.34,1.17.62,2.37.88,3.6h27.6v-3.6" transform="translate(-3.54 -9.5)"></path><path class="cls-2 NbRqfkkC_74" d="M95.93,34.64v346L126,356c-3.85-18.47-4.9-50.4-4.9-101.44V161.37c0-81.69,0-96.36,1.2-113.11a82.4,82.4,0,0,1,1.9-13.73H96.05l-.13.11" transform="translate(-3.54 -9.5)"></path><path class="cls-2 NbRqfkkC_75" d="M68.21,18.5c-14.35-6.1-27.13-7-49.43-7.06a.88.88,0,0,0,0,.16c0,1.05,2.39,1.57,7.77,1.57a123.23,123.23,0,0,1,16.75,1.05C63,16.84,68.41,30.45,69.6,48.26,70.8,65,70.8,79.68,70.8,161.37v92.17c0,50.27,0,91.64-3,113.63-2.39,15.19-4.79,30.9-18,33.52-7.18,1.57-16.15,1.57-17.94,1.57-2.39,0-4.18.52-4.19,1.56,18.36-.05,32-.61,43.54-6.61,10.7-5.57,19.58-11.87,24.66-16.59v-346A116.15,116.15,0,0,0,68.21,18.5" transform="translate(-3.54 -9.5)"></path><path class="cls-3 NbRqfkkC_76" d="M74.57,723.3a2.24,2.24,0,0,1-1.32-.27.42.42,0,0,1-.17-.43c.09-.48,1-1.92,7.87-4.91,6.62-3.12,14.62-8,25.17-15.21,25.74-17.17,38.12-35.09,44.53-63.92,6.55-29.46,6.73-71.19,6.73-136.86V350.36c0-81.65.15-96.36-1-113.12-1-15.35-4.92-31.42-26.5-34.28a122.52,122.52,0,0,0-16.76-1.06c-6.18,0-7.46-.71-7.46-1.3,0-.85,2.44-1.84,9.28-1.84,20.19,0,46.78.9,59.56,1.33,4.39.15,7.29.24,8,.24s4.71-.13,10-.32c13.41-.46,35.86-1.25,48.6-1.25,6.75,0,9.27,1.13,9.27,1.84s-2.16,1.3-6.28,1.3A84.09,84.09,0,0,0,228.51,203c-15.78,2.88-19.08,18.17-20.13,34.28C207.19,254,207,268.71,207,350.36V476c0,85.33.15,117.25-17.78,154.39-8.26,17-23.6,34.9-44.49,51.88a286.75,286.75,0,0,1-66.52,40.15,9.37,9.37,0,0,1-3.67.84" transform="translate(-3.54 -9.5)"></path><path class="cls-4 NbRqfkkC_77" d="M172.13,630l-.41,1H189c.1-.21.45-.91.51-1H172.13" transform="translate(-3.54 -9.5)"></path><path class="cls-4 NbRqfkkC_78" d="M241.13,198.5c-17.94,0-55.63,1.57-58.62,1.57s-40.68-1.57-67.6-1.57c-6.81,0-9.31.94-9.55,1.93,22.3,0,35.08,1,49.43,7.06a115.56,115.56,0,0,1,27.72,16.15c5.08-4.72,14.08-11,24.78-16.59,12.68-6.6,22.3-6.62,43.38-6.62-.29-1-3.3-1.93-9.54-1.93" transform="translate(-3.54 -9.5)"></path><path class="cls-5 NbRqfkkC_79" d="M171.76,630.53H152.08c-6,34.54-18.84,53.53-46.14,71.74-8.38,5.76-17.35,11.52-25.13,15.19-6,2.61-9,4.71-7.78,5.76,45.91-20.62,81.76-49.28,98.73-92.69" transform="translate(-3.54 -9.5)"></path><path class="cls-6 NbRqfkkC_80" d="M154.79,207.49c-14.35-6.09-27.13-7-49.43-7.05a.78.78,0,0,0,0,.16c0,1,2.39,1.57,7.77,1.57a121.49,121.49,0,0,1,16.75,1.05c14.31,1.89,21.07,9.56,24.17,20.42a66.73,66.73,0,0,1,2.15,13.61c1.2,16.76,1.2,31.42,1.2,113.12V501.71c0,59.77-.25,99.79-5.31,128.82h19.69c7-17.79,10.75-38.06,10.75-61.27V223.64c-5.37-4.36-14.36-10.47-27.72-16.15" transform="translate(-3.54 -9.5)"></path><path class="cls-7 NbRqfkkC_81" d="M207.63,350.36c0-81.69,0-96.35,1.2-113.11a91.31,91.31,0,0,1,1.77-13.61c2.44-11,7.5-18.51,18-20.43a84.41,84.41,0,0,1,15.55-1c3.59,0,6.59-.53,6.59-1.57a1,1,0,0,0,0-.17c-21.09,0-30.71,0-43.39,6.62-10.7,5.57-19.7,11.87-24.78,16.59V569.26c0,23.21-3.79,43.48-10.74,61.27h17.92c17.94-37.18,17.94-69.65,17.94-154.49V350.36" transform="translate(-3.54 -9.5)"></path><path class="cls-8 NbRqfkkC_82" d="M73,723.22c.6.52,3,.52,5.39-.53,46.66-19.9,93.92-56.55,111.27-92.16H171.76c-17,43.41-52.82,72.07-98.73,92.69" transform="translate(-3.54 -9.5)"></path><path class="cls-6 NbRqfkkC_83" d="M182.51,223.64a115.56,115.56,0,0,0-27.72-16.15c-14.35-6.09-27.13-7-49.43-7.06a1,1,0,0,0,0,.17c0,1,2.39,1.57,7.77,1.57a123.45,123.45,0,0,1,16.75,1c14.31,1.9,21.07,9.57,24.17,20.43a57.87,57.87,0,0,1,1.7,8.78h26.78v-8.78" transform="translate(-3.54 -9.5)"></path><path class="cls-9 NbRqfkkC_84" d="M182.51,232.42H155.73c.19,1.58.35,3.18.46,4.83,1.19,16.76,1.19,31.42,1.19,113.11V501.7c0,24.69,0,46-.45,64.56h25.58V232.42" transform="translate(-3.54 -9.5)"></path><path class="cls-10 NbRqfkkC_85" d="M207.29,207.05c-10.7,5.57-19.7,11.87-24.78,16.59V569.26c0,23.21-3.79,43.48-10.75,61.27h17.93c17.94-37.18,17.94-69.65,17.94-154.49V350.36c0-81.69,0-96.35,1.2-113.11a91.31,91.31,0,0,1,1.77-13.61c1.33-6,3.46-11,6.82-14.59l-5-4.38c-1.68.68-3.38,1.47-5.14,2.38" transform="translate(-3.54 -9.5)"></path><path class="cls-11 NbRqfkkC_86" d="M228.57,203.21a84.41,84.41,0,0,1,15.55-1c3.59,0,6.58-.53,6.58-1.57a.51.51,0,0,0,0-.17c-15.41,0-24.69,0-33.53,2.6l3.65,3.19a21.05,21.05,0,0,1,7.78-3" transform="translate(-3.54 -9.5)"></path><path class="cls-12 NbRqfkkC_87" d="M241.13,198.5c-17.94,0-55.63,1.57-58.62,1.57s-40.68-1.57-67.6-1.57c-6.81,0-9.31.94-9.55,1.93,22.3,0,35.08,1,49.43,7.06a115.56,115.56,0,0,1,27.72,16.15c5.08-4.72,14.08-11,24.78-16.59,12.68-6.6,22.3-6.62,43.38-6.62-.29-1-3.3-1.93-9.54-1.93" transform="translate(-3.54 -9.5)"></path><path class="cls-13 NbRqfkkC_88" d="M182.51,223.64a115.56,115.56,0,0,0-27.72-16.15c-14.35-6.09-27.13-7-49.43-7.06a1,1,0,0,0,0,.17c0,1,2.39,1.57,7.77,1.57a123.45,123.45,0,0,1,16.75,1c14.31,1.9,21.07,9.57,24.17,20.43.13.45.25.91.36,1.37h28.12v-1.37" transform="translate(-3.54 -9.5)"></path><path class="cls-14 NbRqfkkC_89" d="M171.76,630.53H152.08c-6,34.54-18.84,53.53-46.14,71.74-8.38,5.76-17.35,11.52-25.13,15.19-6,2.61-9,4.71-7.78,5.76,45.91-20.62,81.76-49.28,98.73-92.69" transform="translate(-3.54 -9.5)"></path><path class="cls-15 NbRqfkkC_90" d="M73,723.22c.6.52,3,.52,5.39-.53,46.66-19.9,93.92-56.55,111.27-92.16H171.76c-17,43.41-52.82,72.07-98.73,92.69" transform="translate(-3.54 -9.5)"></path><path class="cls-16 NbRqfkkC_91" d="M182.51,535.66v33.6c0,23.21-3.79,43.48-10.75,61.27h17.93c13-26.89,16.57-51.32,17.56-94.87H182.51" transform="translate(-3.54 -9.5)"></path><path class="cls-17 NbRqfkkC_92" d="M171.76,630.53c7-17.79,10.75-38.06,10.75-61.27v-3H156.93c-.57,26.39-1.89,47.23-4.85,64.27h19.68" transform="translate(-3.54 -9.5)"></path><path class="cls-18 NbRqfkkC_93" d="M154.79,207.49c-14.35-6.09-27.13-7-49.43-7.05a.78.78,0,0,0,0,.16c0,1,2.39,1.57,7.77,1.57a121.49,121.49,0,0,1,16.75,1.05c14.31,1.89,21.07,9.56,24.17,20.42a66.73,66.73,0,0,1,2.15,13.61c1.2,16.76,1.2,31.42,1.2,113.12V501.71c0,59.77-.25,99.79-5.31,128.82h19.69c7-17.79,10.75-38.06,10.75-61.27V223.64c-5.37-4.36-14.36-10.47-27.72-16.15" transform="translate(-3.54 -9.5)"></path><path class="cls-19 NbRqfkkC_94" d="M207.63,350.36c0-81.69,0-96.35,1.2-113.11a91.31,91.31,0,0,1,1.77-13.61c2.44-11,7.5-18.51,18-20.43a84.41,84.41,0,0,1,15.55-1c3.59,0,6.59-.53,6.59-1.57a1,1,0,0,0,0-.17c-21.09,0-30.71,0-43.39,6.62-10.7,5.57-19.7,11.87-24.78,16.59V569.26c0,23.21-3.79,43.48-10.74,61.27h17.92c17.94-37.18,17.94-69.65,17.94-154.49V350.36" transform="translate(-3.54 -9.5)"></path><path class="cls-3 NbRqfkkC_95" d="M247.88,408c-24.94,0-49.4-.73-75.3-1.5-27.11-.8-55.13-1.64-85-1.64-7,0-17.33.37-28.22.76-11.05.4-22.48.81-30.41.81s-9.27-.82-9.27-1.31c0-.79,1.53-1.31,3.89-1.31a89.78,89.78,0,0,0,18-1.57c13.27-2.64,15.74-18.3,18.12-33.45l-.1-.29c3-22,2.84-62.46,2.84-113.67V162.71c0-81.65.15-96.37-1-113.13-1-15.35-4.92-31.42-26.5-34.28a122.85,122.85,0,0,0-16.76-1.05c-6.18,0-7.46-.72-7.46-1.31,0-.85,2.44-1.84,9.28-1.84,20.19,0,46.78.9,59.56,1.33,4.39.15,7.29.24,8,.24s5.22-.13,11.25-.31c15.19-.47,40.62-1.26,53.35-1.26,6.76,0,9.28,1.13,9.28,1.84s-2.16,1.31-6.29,1.31c-4.86,0-15,0-21,1.05-12.84,2.34-19.34,12.91-20.73,34.28-1.2,16.76-1.35,31.48-1.35,113.13v93.21c0,73.52,2.13,110.24,13.4,120.1,9,7.86,23.19,12.12,72.07,12.12,18.2,0,43.15,0,59.34-4.2,17.83-4.68,28.89-11.87,32.53-34.77,1.31-6.31,2.53-7.63,3.31-7.63a.37.37,0,0,1,.22.12c.75.76,1.22,4.17.69,7.43l-.1.68c-3.15,22.27-6.52,39.88-9.47,49.56-2.34,7.69-9.39,8.71-36.2,8.71" transform="translate(-3.54 -9.5)"></path><path class="cls-4 NbRqfkkC_96" d="M258.17,383.6l-1.19.33,9.19,11.7c.26-.05.95-.13.95-.13l.23-.21-9.18-11.69" transform="translate(-3.54 -9.5)"></path><path class="cls-4 NbRqfkkC_97" d="M87.56,36c5.08-4.72,14.08-11,24.78-16.59,12.72-6.62,28-6.62,49.37-6.62-.3-1-3.31-1.93-9.54-1.93-17.95,0-61.62,1.57-64.61,1.57S46.88,10.84,20,10.84c-6.8,0-9.3.94-9.54,1.93,22.29,0,35.07,1,49.43,7.06A115.45,115.45,0,0,1,87.56,36" transform="translate(-3.54 -9.5)"></path><path class="cls-20 NbRqfkkC_98" d="M59.85,19.83c-14.35-6.09-27.13-7-49.43-7a.41.41,0,0,0,0,.16c0,1,2.39,1.57,7.78,1.57a121.61,121.61,0,0,1,16.75,1.05c19.74,2.61,25.12,16.23,26.32,34,1.2,16.76,1.2,31.42,1.2,113.12v92.16c0,50.27,0,91.64-3,113.64-2.4,15.18-4.79,30.89-18,33.51-7.18,1.57-16.15,1.57-17.95,1.57-2.39,0-4.18.53-4.18,1.57,18.36-.05,32-.62,43.54-6.62C73.6,393,82.48,386.68,87.56,382V36A115.66,115.66,0,0,0,59.85,19.83" transform="translate(-3.54 -9.5)"></path><path class="cls-4 NbRqfkkC_99" d="M284.37,399.4c4.79-15.71,9-46.08,9.57-50.27.59-3.6,0-7.69-1.13-7.84-3.73,35.29-16.35,46-25.54,54.44,5.49,3.55,9.2,6.16,13.14,9.12a9.11,9.11,0,0,0,4-5.45" transform="translate(-3.54 -9.5)"></path><path class="cls-21 NbRqfkkC_100" d="M119,393.56c-14.75-3.3-26-7.25-31.41-11.61-5.08,4.72-14,11-24.65,16.59-11.53,6-25.19,6.56-43.54,6.61h0c0,1,3,1.57,9.58,1.57,15.55,0,44.26-1.57,58.62-1.57,58,0,108.88,3.14,160.32,3.14,18.7,0,27.87-.51,32.53-3.45-3.94-3-7.65-5.57-13.13-9.12-18.35,3.93-117.51,4.72-148.31-2.17" transform="translate(-3.54 -9.5)"></path><path class="cls-22 NbRqfkkC_101" d="M292.81,341.29h-.06c-1.2,0-2.39,2.09-3.59,7.85-3.55,22.28-14.13,29.69-31.73,34.41L267,395.79l.28-.05c9.18-8.46,21.8-19.16,25.54-54.45" transform="translate(-3.54 -9.5)"></path><path class="cls-23 NbRqfkkC_102" d="M256.86,383.69c-16.16,4.19-41.28,4.19-59.23,4.19-46.66,0-62.21-3.66-71.78-12-10.77-9.43-13.16-42.94-13.16-119.92V162.7c0-81.69,0-96.35,1.19-113.11,1.2-18.33,6-31.42,20.34-34,6-1,16.15-1,20.94-1,3.59,0,6.58-.53,6.58-1.57a.51.51,0,0,0,0-.17c-21.36,0-36.65,0-49.37,6.62C101.65,25,92.64,31.26,87.56,36V382c5.37,4.36,16.66,8.3,31.41,11.6,30.66,6.86,129,6.11,148,2.23l-9.58-12.25-.56.16" transform="translate(-3.54 -9.5)"></path><path class="cls-24 NbRqfkkC_103" d="M61.15,48.43l.09,1.16C62.43,66.35,62.43,81,62.43,162.7v92.17c0,46.61-.59,73.31-1.19,93.74q-.12,3.92-.32,7.5H87.56V48.43H61.15" transform="translate(-3.54 -9.5)"></path><path class="cls-25 NbRqfkkC_104" d="M257.42,383.54l-.56.15c-16.15,4.19-41.28,4.19-59.23,4.19-46.66,0-62.21-3.66-71.78-12-10.77-9.43-13.16-42.94-13.16-119.92V162.71c0-81.7,0-96.36,1.2-113.12a88.07,88.07,0,0,1,1.52-12L97.5,28.24A86.91,86.91,0,0,0,87.56,36V382c5.37,4.36,16.67,8.31,31.41,11.6,30.66,6.86,129,6.12,148,2.24l-9.57-12.26" transform="translate(-3.54 -9.5)"></path><path class="cls-26 NbRqfkkC_105" d="M134.22,15.55c6-1,16.15-1,20.94-1,3.59,0,6.58-.53,6.58-1.57a.51.51,0,0,0,0-.17c-21.36,0-36.65,0-49.37,6.62-3,1.55-5.8,3.15-8.46,4.76l14.65,3.7c3.12-6.54,8-10.9,15.69-12.29" transform="translate(-3.54 -9.5)"></path><path class="cls-27 NbRqfkkC_106" d="M292.81,341.29h-.06c-1.2,0-2.39,2.09-3.59,7.85-3.55,22.28-14.13,29.69-31.73,34.41L267,395.79l.28-.05c9.18-8.46,21.8-19.16,25.54-54.45" transform="translate(-3.54 -9.5)"></path><path class="cls-28 NbRqfkkC_107" d="M284.37,399.4c4.79-15.71,9-46.08,9.57-50.27.59-3.6,0-7.69-1.13-7.84-3.73,35.29-16.35,46-25.54,54.44,5.49,3.55,9.2,6.16,13.14,9.12a9.11,9.11,0,0,0,4-5.45" transform="translate(-3.54 -9.5)"></path><path class="cls-29 NbRqfkkC_108" d="M87.56,382c-5.08,4.72-14,11-24.65,16.58-11.53,6-25.19,6.57-43.54,6.62h0c0,1,3,1.57,9.58,1.57,15.55,0,44.26-1.57,58.62-1.57,10,0,19.73.1,29.31.25V393.08c-13.71-3.2-24.2-7-29.31-11.12" transform="translate(-3.54 -9.5)"></path><path class="cls-30 NbRqfkkC_109" d="M280.41,404.85c-3.94-3-7.65-5.57-13.13-9.12-18.35,3.93-117.5,4.72-148.31-2.17l-2.1-.48v12.33c46.2.74,88.41,2.89,131,2.89,18.7,0,27.87-.51,32.53-3.45" transform="translate(-3.54 -9.5)"></path><path class="cls-31 NbRqfkkC_110" d="M87.56,36c5.08-4.72,14.08-11,24.78-16.59,12.72-6.62,28-6.62,49.37-6.62-.3-1-3.31-1.93-9.54-1.93-17.95,0-61.62,1.57-64.61,1.57S46.88,10.84,20,10.84c-6.8,0-9.3.94-9.54,1.93,22.29,0,35.07,1,49.43,7.06A115.45,115.45,0,0,1,87.56,36" transform="translate(-3.54 -9.5)"></path><path class="cls-32 NbRqfkkC_111" d="M87.56,36A115.66,115.66,0,0,0,59.85,19.83c-14.35-6.09-27.13-7-49.43-7.06a.51.51,0,0,0,0,.17c0,1,2.39,1.57,7.78,1.57a123.57,123.57,0,0,1,16.75,1C49.22,17.45,56,25.12,59.08,36q.49,1.74.87,3.6H87.56V36" transform="translate(-3.54 -9.5)"></path><path class="cls-33 NbRqfkkC_112" d="M87.56,36v346l30-24.57c-3.85-18.47-4.9-50.4-4.9-101.44V162.7c0-81.69,0-96.35,1.19-113.11a83.72,83.72,0,0,1,1.91-13.73H87.69l-.13.12" transform="translate(-3.54 -9.5)"></path><path class="cls-34 NbRqfkkC_113" d="M59.85,19.83c-14.35-6.09-27.13-7-49.43-7a.41.41,0,0,0,0,.16c0,1,2.39,1.57,7.78,1.57a121.61,121.61,0,0,1,16.75,1.05c19.74,2.61,25.12,16.23,26.32,34,1.2,16.76,1.2,31.42,1.2,113.12v92.16c0,50.27,0,91.64-3,113.64-2.4,15.18-4.79,30.89-18,33.51-7.18,1.57-16.15,1.57-17.95,1.57-2.39,0-4.18.53-4.18,1.57,18.36-.05,32-.62,43.54-6.62C73.6,393,82.48,386.68,87.56,382V36A115.66,115.66,0,0,0,59.85,19.83" transform="translate(-3.54 -9.5)"></path><style data-made-with="vivus-instant">.NbRqfkkC_0{stroke-dasharray:1353 1355;stroke-dashoffset:1354;}.start .NbRqfkkC_0{animation:NbRqfkkC_draw 70ms ease-out 0ms forwards;}.NbRqfkkC_1{stroke-dasharray:37 39;stroke-dashoffset:38;}.start .NbRqfkkC_1{animation:NbRqfkkC_draw 1ms ease-out 70ms forwards;}.NbRqfkkC_2{stroke-dasharray:304 306;stroke-dashoffset:305;}.start .NbRqfkkC_2{animation:NbRqfkkC_draw 15ms ease-out 72ms forwards;}.NbRqfkkC_3{stroke-dasharray:287 289;stroke-dashoffset:288;}.start .NbRqfkkC_3{animation:NbRqfkkC_draw 14ms ease-out 88ms forwards;}.NbRqfkkC_4{stroke-dasharray:977 979;stroke-dashoffset:978;}.start .NbRqfkkC_4{animation:NbRqfkkC_draw 50ms ease-out 103ms forwards;}.NbRqfkkC_5{stroke-dasharray:962 964;stroke-dashoffset:963;}.start .NbRqfkkC_5{animation:NbRqfkkC_draw 50ms ease-out 153ms forwards;}.NbRqfkkC_6{stroke-dasharray:310 312;stroke-dashoffset:311;}.start .NbRqfkkC_6{animation:NbRqfkkC_draw 16ms ease-out 203ms forwards;}.NbRqfkkC_7{stroke-dasharray:187 189;stroke-dashoffset:188;}.start .NbRqfkkC_7{animation:NbRqfkkC_draw 9ms ease-out 220ms forwards;}.NbRqfkkC_8{stroke-dasharray:720 722;stroke-dashoffset:721;}.start .NbRqfkkC_8{animation:NbRqfkkC_draw 37ms ease-out 229ms forwards;}.NbRqfkkC_9{stroke-dasharray:895 897;stroke-dashoffset:896;}.start .NbRqfkkC_9{animation:NbRqfkkC_draw 46ms ease-out 267ms forwards;}.NbRqfkkC_10{stroke-dasharray:70 72;stroke-dashoffset:71;}.start .NbRqfkkC_10{animation:NbRqfkkC_draw 3ms ease-out 313ms forwards;}.NbRqfkkC_11{stroke-dasharray:304 306;stroke-dashoffset:305;}.start .NbRqfkkC_11{animation:NbRqfkkC_draw 15ms ease-out 317ms forwards;}.NbRqfkkC_12{stroke-dasharray:173 175;stroke-dashoffset:174;}.start .NbRqfkkC_12{animation:NbRqfkkC_draw 9ms ease-out 333ms forwards;}.NbRqfkkC_13{stroke-dasharray:287 289;stroke-dashoffset:288;}.start .NbRqfkkC_13{animation:NbRqfkkC_draw 14ms ease-out 342ms forwards;}.NbRqfkkC_14{stroke-dasharray:310 312;stroke-dashoffset:311;}.start .NbRqfkkC_14{animation:NbRqfkkC_draw 16ms ease-out 357ms forwards;}.NbRqfkkC_15{stroke-dasharray:237 239;stroke-dashoffset:238;}.start .NbRqfkkC_15{animation:NbRqfkkC_draw 12ms ease-out 373ms forwards;}.NbRqfkkC_16{stroke-dasharray:176 178;stroke-dashoffset:177;}.start .NbRqfkkC_16{animation:NbRqfkkC_draw 9ms ease-out 385ms forwards;}.NbRqfkkC_17{stroke-dasharray:977 979;stroke-dashoffset:978;}.start .NbRqfkkC_17{animation:NbRqfkkC_draw 50ms ease-out 394ms forwards;}.NbRqfkkC_18{stroke-dasharray:962 964;stroke-dashoffset:963;}.start .NbRqfkkC_18{animation:NbRqfkkC_draw 50ms ease-out 445ms forwards;}.NbRqfkkC_19{stroke-dasharray:1529 1531;stroke-dashoffset:1530;}.start .NbRqfkkC_19{animation:NbRqfkkC_draw 79ms ease-out 495ms forwards;}.NbRqfkkC_20{stroke-dasharray:33 35;stroke-dashoffset:34;}.start .NbRqfkkC_20{animation:NbRqfkkC_draw 1ms ease-out 575ms forwards;}.NbRqfkkC_21{stroke-dasharray:315 317;stroke-dashoffset:316;}.start .NbRqfkkC_21{animation:NbRqfkkC_draw 16ms ease-out 577ms forwards;}.NbRqfkkC_22{stroke-dasharray:959 961;stroke-dashoffset:960;}.start .NbRqfkkC_22{animation:NbRqfkkC_draw 49ms ease-out 593ms forwards;}.NbRqfkkC_23{stroke-dasharray:145 147;stroke-dashoffset:146;}.start .NbRqfkkC_23{animation:NbRqfkkC_draw 7ms ease-out 643ms forwards;}.NbRqfkkC_24{stroke-dasharray:535 537;stroke-dashoffset:536;}.start .NbRqfkkC_24{animation:NbRqfkkC_draw 27ms ease-out 650ms forwards;}.NbRqfkkC_25{stroke-dasharray:138 140;stroke-dashoffset:139;}.start .NbRqfkkC_25{animation:NbRqfkkC_draw 7ms ease-out 678ms forwards;}.NbRqfkkC_26{stroke-dasharray:1158 1160;stroke-dashoffset:1159;}.start .NbRqfkkC_26{animation:NbRqfkkC_draw 60ms ease-out 685ms forwards;}.NbRqfkkC_27{stroke-dasharray:669 671;stroke-dashoffset:670;}.start .NbRqfkkC_27{animation:NbRqfkkC_draw 34ms ease-out 746ms forwards;}.NbRqfkkC_28{stroke-dasharray:1052 1054;stroke-dashoffset:1053;}.start .NbRqfkkC_28{animation:NbRqfkkC_draw 54ms ease-out 780ms forwards;}.NbRqfkkC_29{stroke-dasharray:125 127;stroke-dashoffset:126;}.start .NbRqfkkC_29{animation:NbRqfkkC_draw 6ms ease-out 835ms forwards;}.NbRqfkkC_30{stroke-dasharray:138 140;stroke-dashoffset:139;}.start .NbRqfkkC_30{animation:NbRqfkkC_draw 7ms ease-out 842ms forwards;}.NbRqfkkC_31{stroke-dasharray:145 147;stroke-dashoffset:146;}.start .NbRqfkkC_31{animation:NbRqfkkC_draw 7ms ease-out 849ms forwards;}.NbRqfkkC_32{stroke-dasharray:217 219;stroke-dashoffset:218;}.start .NbRqfkkC_32{animation:NbRqfkkC_draw 11ms ease-out 856ms forwards;}.NbRqfkkC_33{stroke-dasharray:344 346;stroke-dashoffset:345;}.start .NbRqfkkC_33{animation:NbRqfkkC_draw 17ms ease-out 868ms forwards;}.NbRqfkkC_34{stroke-dasharray:315 317;stroke-dashoffset:316;}.start .NbRqfkkC_34{animation:NbRqfkkC_draw 16ms ease-out 886ms forwards;}.NbRqfkkC_35{stroke-dasharray:177 179;stroke-dashoffset:178;}.start .NbRqfkkC_35{animation:NbRqfkkC_draw 9ms ease-out 902ms forwards;}.NbRqfkkC_36{stroke-dasharray:736 738;stroke-dashoffset:737;}.start .NbRqfkkC_36{animation:NbRqfkkC_draw 38ms ease-out 911ms forwards;}.NbRqfkkC_37{stroke-dasharray:959 961;stroke-dashoffset:960;}.start .NbRqfkkC_37{animation:NbRqfkkC_draw 49ms ease-out 950ms forwards;}.NbRqfkkC_38{stroke-dasharray:1354 1356;stroke-dashoffset:1355;}.start .NbRqfkkC_38{animation:NbRqfkkC_draw 70ms ease-out 999ms forwards;}.NbRqfkkC_39{stroke-dasharray:37 39;stroke-dashoffset:38;}.start .NbRqfkkC_39{animation:NbRqfkkC_draw 1ms ease-out 1070ms forwards;}.NbRqfkkC_40{stroke-dasharray:304 306;stroke-dashoffset:305;}.start .NbRqfkkC_40{animation:NbRqfkkC_draw 15ms ease-out 1072ms forwards;}.NbRqfkkC_41{stroke-dasharray:287 289;stroke-dashoffset:288;}.start .NbRqfkkC_41{animation:NbRqfkkC_draw 14ms ease-out 1088ms forwards;}.NbRqfkkC_42{stroke-dasharray:977 979;stroke-dashoffset:978;}.start .NbRqfkkC_42{animation:NbRqfkkC_draw 50ms ease-out 1103ms forwards;}.NbRqfkkC_43{stroke-dasharray:962 964;stroke-dashoffset:963;}.start .NbRqfkkC_43{animation:NbRqfkkC_draw 50ms ease-out 1153ms forwards;}.NbRqfkkC_44{stroke-dasharray:310 312;stroke-dashoffset:311;}.start .NbRqfkkC_44{animation:NbRqfkkC_draw 16ms ease-out 1203ms forwards;}.NbRqfkkC_45{stroke-dasharray:187 189;stroke-dashoffset:188;}.start .NbRqfkkC_45{animation:NbRqfkkC_draw 9ms ease-out 1220ms forwards;}.NbRqfkkC_46{stroke-dasharray:721 723;stroke-dashoffset:722;}.start .NbRqfkkC_46{animation:NbRqfkkC_draw 37ms ease-out 1229ms forwards;}.NbRqfkkC_47{stroke-dasharray:895 897;stroke-dashoffset:896;}.start .NbRqfkkC_47{animation:NbRqfkkC_draw 46ms ease-out 1267ms forwards;}.NbRqfkkC_48{stroke-dasharray:70 72;stroke-dashoffset:71;}.start .NbRqfkkC_48{animation:NbRqfkkC_draw 3ms ease-out 1313ms forwards;}.NbRqfkkC_49{stroke-dasharray:304 306;stroke-dashoffset:305;}.start .NbRqfkkC_49{animation:NbRqfkkC_draw 15ms ease-out 1317ms forwards;}.NbRqfkkC_50{stroke-dasharray:173 175;stroke-dashoffset:174;}.start .NbRqfkkC_50{animation:NbRqfkkC_draw 9ms ease-out 1333ms forwards;}.NbRqfkkC_51{stroke-dasharray:287 289;stroke-dashoffset:288;}.start .NbRqfkkC_51{animation:NbRqfkkC_draw 14ms ease-out 1342ms forwards;}.NbRqfkkC_52{stroke-dasharray:310 312;stroke-dashoffset:311;}.start .NbRqfkkC_52{animation:NbRqfkkC_draw 16ms ease-out 1357ms forwards;}.NbRqfkkC_53{stroke-dasharray:237 239;stroke-dashoffset:238;}.start .NbRqfkkC_53{animation:NbRqfkkC_draw 12ms ease-out 1373ms forwards;}.NbRqfkkC_54{stroke-dasharray:176 178;stroke-dashoffset:177;}.start .NbRqfkkC_54{animation:NbRqfkkC_draw 9ms ease-out 1385ms forwards;}.NbRqfkkC_55{stroke-dasharray:977 979;stroke-dashoffset:978;}.start .NbRqfkkC_55{animation:NbRqfkkC_draw 50ms ease-out 1395ms forwards;}.NbRqfkkC_56{stroke-dasharray:962 964;stroke-dashoffset:963;}.start .NbRqfkkC_56{animation:NbRqfkkC_draw 50ms ease-out 1445ms forwards;}.NbRqfkkC_57{stroke-dasharray:1529 1531;stroke-dashoffset:1530;}.start .NbRqfkkC_57{animation:NbRqfkkC_draw 79ms ease-out 1495ms forwards;}.NbRqfkkC_58{stroke-dasharray:33 35;stroke-dashoffset:34;}.start .NbRqfkkC_58{animation:NbRqfkkC_draw 1ms ease-out 1575ms forwards;}.NbRqfkkC_59{stroke-dasharray:315 317;stroke-dashoffset:316;}.start .NbRqfkkC_59{animation:NbRqfkkC_draw 16ms ease-out 1577ms forwards;}.NbRqfkkC_60{stroke-dasharray:959 961;stroke-dashoffset:960;}.start .NbRqfkkC_60{animation:NbRqfkkC_draw 49ms ease-out 1593ms forwards;}.NbRqfkkC_61{stroke-dasharray:145 147;stroke-dashoffset:146;}.start .NbRqfkkC_61{animation:NbRqfkkC_draw 7ms ease-out 1643ms forwards;}.NbRqfkkC_62{stroke-dasharray:535 537;stroke-dashoffset:536;}.start .NbRqfkkC_62{animation:NbRqfkkC_draw 27ms ease-out 1650ms forwards;}.NbRqfkkC_63{stroke-dasharray:138 140;stroke-dashoffset:139;}.start .NbRqfkkC_63{animation:NbRqfkkC_draw 7ms ease-out 1678ms forwards;}.NbRqfkkC_64{stroke-dasharray:1158 1160;stroke-dashoffset:1159;}.start .NbRqfkkC_64{animation:NbRqfkkC_draw 60ms ease-out 1685ms forwards;}.NbRqfkkC_65{stroke-dasharray:669 671;stroke-dashoffset:670;}.start .NbRqfkkC_65{animation:NbRqfkkC_draw 34ms ease-out 1746ms forwards;}.NbRqfkkC_66{stroke-dasharray:1052 1054;stroke-dashoffset:1053;}.start .NbRqfkkC_66{animation:NbRqfkkC_draw 54ms ease-out 1780ms forwards;}.NbRqfkkC_67{stroke-dasharray:125 127;stroke-dashoffset:126;}.start .NbRqfkkC_67{animation:NbRqfkkC_draw 6ms ease-out 1835ms forwards;}.NbRqfkkC_68{stroke-dasharray:138 140;stroke-dashoffset:139;}.start .NbRqfkkC_68{animation:NbRqfkkC_draw 7ms ease-out 1842ms forwards;}.NbRqfkkC_69{stroke-dasharray:145 147;stroke-dashoffset:146;}.start .NbRqfkkC_69{animation:NbRqfkkC_draw 7ms ease-out 1849ms forwards;}.NbRqfkkC_70{stroke-dasharray:217 219;stroke-dashoffset:218;}.start .NbRqfkkC_70{animation:NbRqfkkC_draw 11ms ease-out 1856ms forwards;}.NbRqfkkC_71{stroke-dasharray:344 346;stroke-dashoffset:345;}.start .NbRqfkkC_71{animation:NbRqfkkC_draw 17ms ease-out 1868ms forwards;}.NbRqfkkC_72{stroke-dasharray:315 317;stroke-dashoffset:316;}.start .NbRqfkkC_72{animation:NbRqfkkC_draw 16ms ease-out 1886ms forwards;}.NbRqfkkC_73{stroke-dasharray:177 179;stroke-dashoffset:178;}.start .NbRqfkkC_73{animation:NbRqfkkC_draw 9ms ease-out 1902ms forwards;}.NbRqfkkC_74{stroke-dasharray:736 738;stroke-dashoffset:737;}.start .NbRqfkkC_74{animation:NbRqfkkC_draw 38ms ease-out 1911ms forwards;}.NbRqfkkC_75{stroke-dasharray:959 961;stroke-dashoffset:960;}.start .NbRqfkkC_75{animation:NbRqfkkC_draw 49ms ease-out 1950ms forwards;}.NbRqfkkC_76{stroke-dasharray:1353 1355;stroke-dashoffset:1354;}.start .NbRqfkkC_76{animation:NbRqfkkC_draw 70ms ease-out 2000ms forwards;}.NbRqfkkC_77{stroke-dasharray:37 39;stroke-dashoffset:38;}.start .NbRqfkkC_77{animation:NbRqfkkC_draw 1ms ease-out 2070ms forwards;}.NbRqfkkC_78{stroke-dasharray:304 306;stroke-dashoffset:305;}.start .NbRqfkkC_78{animation:NbRqfkkC_draw 15ms ease-out 2072ms forwards;}.NbRqfkkC_79{stroke-dasharray:287 289;stroke-dashoffset:288;}.start .NbRqfkkC_79{animation:NbRqfkkC_draw 14ms ease-out 2088ms forwards;}.NbRqfkkC_80{stroke-dasharray:977 979;stroke-dashoffset:978;}.start .NbRqfkkC_80{animation:NbRqfkkC_draw 50ms ease-out 2103ms forwards;}.NbRqfkkC_81{stroke-dasharray:962 964;stroke-dashoffset:963;}.start .NbRqfkkC_81{animation:NbRqfkkC_draw 50ms ease-out 2153ms forwards;}.NbRqfkkC_82{stroke-dasharray:310 312;stroke-dashoffset:311;}.start .NbRqfkkC_82{animation:NbRqfkkC_draw 16ms ease-out 2203ms forwards;}.NbRqfkkC_83{stroke-dasharray:187 189;stroke-dashoffset:188;}.start .NbRqfkkC_83{animation:NbRqfkkC_draw 9ms ease-out 2220ms forwards;}.NbRqfkkC_84{stroke-dasharray:721 723;stroke-dashoffset:722;}.start .NbRqfkkC_84{animation:NbRqfkkC_draw 37ms ease-out 2229ms forwards;}.NbRqfkkC_85{stroke-dasharray:895 897;stroke-dashoffset:896;}.start .NbRqfkkC_85{animation:NbRqfkkC_draw 46ms ease-out 2267ms forwards;}.NbRqfkkC_86{stroke-dasharray:70 72;stroke-dashoffset:71;}.start .NbRqfkkC_86{animation:NbRqfkkC_draw 3ms ease-out 2313ms forwards;}.NbRqfkkC_87{stroke-dasharray:304 306;stroke-dashoffset:305;}.start .NbRqfkkC_87{animation:NbRqfkkC_draw 15ms ease-out 2317ms forwards;}.NbRqfkkC_88{stroke-dasharray:173 175;stroke-dashoffset:174;}.start .NbRqfkkC_88{animation:NbRqfkkC_draw 9ms ease-out 2333ms forwards;}.NbRqfkkC_89{stroke-dasharray:287 289;stroke-dashoffset:288;}.start .NbRqfkkC_89{animation:NbRqfkkC_draw 14ms ease-out 2342ms forwards;}.NbRqfkkC_90{stroke-dasharray:310 312;stroke-dashoffset:311;}.start .NbRqfkkC_90{animation:NbRqfkkC_draw 16ms ease-out 2357ms forwards;}.NbRqfkkC_91{stroke-dasharray:237 239;stroke-dashoffset:238;}.start .NbRqfkkC_91{animation:NbRqfkkC_draw 12ms ease-out 2373ms forwards;}.NbRqfkkC_92{stroke-dasharray:176 178;stroke-dashoffset:177;}.start .NbRqfkkC_92{animation:NbRqfkkC_draw 9ms ease-out 2385ms forwards;}.NbRqfkkC_93{stroke-dasharray:977 979;stroke-dashoffset:978;}.start .NbRqfkkC_93{animation:NbRqfkkC_draw 50ms ease-out 2395ms forwards;}.NbRqfkkC_94{stroke-dasharray:962 964;stroke-dashoffset:963;}.start .NbRqfkkC_94{animation:NbRqfkkC_draw 50ms ease-out 2445ms forwards;}.NbRqfkkC_95{stroke-dasharray:1529 1531;stroke-dashoffset:1530;}.start .NbRqfkkC_95{animation:NbRqfkkC_draw 79ms ease-out 2495ms forwards;}.NbRqfkkC_96{stroke-dasharray:33 35;stroke-dashoffset:34;}.start .NbRqfkkC_96{animation:NbRqfkkC_draw 1ms ease-out 2575ms forwards;}.NbRqfkkC_97{stroke-dasharray:315 317;stroke-dashoffset:316;}.start .NbRqfkkC_97{animation:NbRqfkkC_draw 16ms ease-out 2577ms forwards;}.NbRqfkkC_98{stroke-dasharray:959 961;stroke-dashoffset:960;}.start .NbRqfkkC_98{animation:NbRqfkkC_draw 49ms ease-out 2593ms forwards;}.NbRqfkkC_99{stroke-dasharray:145 147;stroke-dashoffset:146;}.start .NbRqfkkC_99{animation:NbRqfkkC_draw 7ms ease-out 2643ms forwards;}.NbRqfkkC_100{stroke-dasharray:535 537;stroke-dashoffset:536;}.start .NbRqfkkC_100{animation:NbRqfkkC_draw 27ms ease-out 2650ms forwards;}.NbRqfkkC_101{stroke-dasharray:138 140;stroke-dashoffset:139;}.start .NbRqfkkC_101{animation:NbRqfkkC_draw 7ms ease-out 2678ms forwards;}.NbRqfkkC_102{stroke-dasharray:1158 1160;stroke-dashoffset:1159;}.start .NbRqfkkC_102{animation:NbRqfkkC_draw 60ms ease-out 2685ms forwards;}.NbRqfkkC_103{stroke-dasharray:669 671;stroke-dashoffset:670;}.start .NbRqfkkC_103{animation:NbRqfkkC_draw 34ms ease-out 2746ms forwards;}.NbRqfkkC_104{stroke-dasharray:1052 1054;stroke-dashoffset:1053;}.start .NbRqfkkC_104{animation:NbRqfkkC_draw 54ms ease-out 2780ms forwards;}.NbRqfkkC_105{stroke-dasharray:125 127;stroke-dashoffset:126;}.start .NbRqfkkC_105{animation:NbRqfkkC_draw 6ms ease-out 2835ms forwards;}.NbRqfkkC_106{stroke-dasharray:138 140;stroke-dashoffset:139;}.start .NbRqfkkC_106{animation:NbRqfkkC_draw 7ms ease-out 2842ms forwards;}.NbRqfkkC_107{stroke-dasharray:145 147;stroke-dashoffset:146;}.start .NbRqfkkC_107{animation:NbRqfkkC_draw 7ms ease-out 2849ms forwards;}.NbRqfkkC_108{stroke-dasharray:217 219;stroke-dashoffset:218;}.start .NbRqfkkC_108{animation:NbRqfkkC_draw 11ms ease-out 2856ms forwards;}.NbRqfkkC_109{stroke-dasharray:344 346;stroke-dashoffset:345;}.start .NbRqfkkC_109{animation:NbRqfkkC_draw 17ms ease-out 2868ms forwards;}.NbRqfkkC_110{stroke-dasharray:315 317;stroke-dashoffset:316;}.start .NbRqfkkC_110{animation:NbRqfkkC_draw 16ms ease-out 2886ms forwards;}.NbRqfkkC_111{stroke-dasharray:177 179;stroke-dashoffset:178;}.start .NbRqfkkC_111{animation:NbRqfkkC_draw 9ms ease-out 2902ms forwards;}.NbRqfkkC_112{stroke-dasharray:736 738;stroke-dashoffset:737;}.start .NbRqfkkC_112{animation:NbRqfkkC_draw 38ms ease-out 2911ms forwards;}.NbRqfkkC_113{stroke-dasharray:959 961;stroke-dashoffset:960;}.start .NbRqfkkC_113{animation:NbRqfkkC_draw 49ms ease-out 2950ms forwards;}@keyframes NbRqfkkC_draw{100%{stroke-dashoffset:0;}}@keyframes NbRqfkkC_fade{0%{stroke-opacity:1;}94.44444444444444%{stroke-opacity:1;}100%{stroke-opacity:0;}}</style></svg>