<?xml version="1.0" encoding="utf-8"?>
<!-- Generator: Adobe Illustrator 28.2.0, SVG Export Plug-In . SVG Version: 6.00 Build 0)  -->
<svg version="1.1" id="Capa_1" xmlns="http://www.w3.org/2000/svg" xmlns:xlink="http://www.w3.org/1999/xlink" x="0px" y="0px"
	 viewBox="0 0 612 792" style="enable-background:new 0 0 612 792;" xml:space="preserve">
<style type="text/css">
	.st0{fill:none;stroke:#009FE3;stroke-width:4;stroke-miterlimit:10;}
	.st1{fill:none;stroke:#DEDC00;stroke-width:4;stroke-miterlimit:10;}
	.st2{fill:none;stroke:#C56394;stroke-width:4;stroke-miterlimit:10;}
</style>
<g>
	<g>
		<line class="st0" x1="63.37" y1="118.92" x2="393.19" y2="175.19"/>
		<line class="st0" x1="393.19" y1="175.19" x2="105.7" y2="287.65"/>
		<line class="st0" x1="180.66" y1="314.57" x2="508.15" y2="382.12"/>
		<line class="st0" x1="233.71" y1="598.8" x2="212.57" y2="602.87"/>
		<line class="st0" x1="212.57" y1="602.87" x2="105.7" y2="287.65"/>
		<line class="st0" x1="508.15" y1="382.12" x2="233.71" y2="598.8"/>
		<line class="st0" x1="180.66" y1="314.57" x2="278.65" y2="438.93"/>
		<line class="st0" x1="63.37" y1="118.92" x2="553.89" y2="138.85"/>
		<line class="st0" x1="553.89" y1="138.85" x2="370.6" y2="353.75"/>
	</g>
	<g>
		<line class="st1" x1="57.98" y1="216.39" x2="387.8" y2="272.66"/>
		<line class="st1" x1="387.8" y1="272.66" x2="100.31" y2="385.13"/>
		<line class="st1" x1="175.28" y1="412.05" x2="502.76" y2="479.59"/>
		<line class="st1" x1="228.33" y1="696.27" x2="207.18" y2="700.34"/>
		<line class="st1" x1="207.18" y1="700.34" x2="100.31" y2="385.13"/>
		<line class="st1" x1="502.76" y1="479.59" x2="228.33" y2="696.27"/>
		<line class="st1" x1="175.28" y1="412.05" x2="273.27" y2="536.41"/>
		<line class="st1" x1="57.98" y1="216.39" x2="548.51" y2="236.33"/>
		<line class="st1" x1="548.51" y1="236.33" x2="365.22" y2="451.22"/>
	</g>
	<g>
		<line class="st2" x1="63.49" y1="171.21" x2="393.31" y2="227.48"/>
		<line class="st2" x1="393.31" y1="227.48" x2="105.83" y2="339.95"/>
		<line class="st2" x1="180.79" y1="366.86" x2="508.27" y2="434.41"/>
		<line class="st2" x1="233.84" y1="651.09" x2="212.7" y2="655.16"/>
		<line class="st2" x1="212.7" y1="655.16" x2="105.83" y2="339.95"/>
		<line class="st2" x1="508.27" y1="434.41" x2="233.84" y2="651.09"/>
		<line class="st2" x1="180.79" y1="366.86" x2="278.78" y2="491.22"/>
		<line class="st2" x1="63.49" y1="171.21" x2="554.02" y2="191.14"/>
		<line class="st2" x1="554.02" y1="191.14" x2="370.73" y2="406.04"/>
	</g>
</g>
</svg>
